<svg width="114" height="60" viewBox="0 0 114 60" fill="none" xmlns="http://www.w3.org/2000/svg">
<g clip-path="url(#clip0_55_2)">
<path d="M56.1978 40.1252C56.0489 40.0847 53.7589 39.4957 51.3253 39.4957C46.7178 39.4957 43.9438 41.9768 43.9438 45.6715C43.9438 48.942 46.2644 50.5731 49.0495 51.4505C49.3583 51.552 49.8132 51.6941 50.1162 51.7941C51.3559 52.1831 52.3455 52.761 52.3455 53.762C52.3455 54.8815 51.2018 55.6063 48.7155 55.6063C46.5305 55.6063 44.4357 54.9831 43.9945 54.872V59.4178C44.2404 59.4699 46.73 59.9573 49.3894 59.9573C53.2148 59.9573 57.5906 58.2905 57.5906 53.3284C57.5906 50.9215 56.1128 48.7057 52.8685 47.6773L51.4894 47.2394C50.6666 46.9805 49.1978 46.561 49.1978 45.3584C49.1978 44.4084 50.2861 43.7394 52.2901 43.7394C54.0191 43.7394 56.1233 44.3189 56.1978 44.342V40.1252ZM98.4416 49.7268C98.4416 52.601 96.2339 54.9263 93.2715 54.9263C90.3059 54.9263 88.104 52.601 88.104 49.7268C88.104 46.8584 90.3059 44.532 93.2715 44.532C96.2339 44.532 98.4416 46.8584 98.4416 49.7268ZM93.2715 39.502C87.1788 39.502 82.8094 44.0847 82.8094 49.7268C82.8094 55.3778 87.1788 59.9573 93.2715 59.9573C99.3636 59.9573 103.739 55.3778 103.739 49.7268C103.739 44.0847 99.3636 39.502 93.2715 39.502ZM37.2405 59.6057H32.2414V39.852H37.2405" fill="#F6F6F6"/>
<path d="M25.3703 40.21C24.9005 40.071 23.1641 39.5021 20.8124 39.5021C14.7292 39.5021 10.2637 43.8273 10.2637 49.7268C10.2637 56.0915 15.1931 59.9573 20.8124 59.9573C23.0449 59.9573 24.7491 59.43 25.3703 59.2542V53.9515C25.1554 54.0705 23.5214 55 21.1707 55C17.8404 55 15.6924 52.6626 15.6924 49.7268C15.6924 46.7015 17.9333 44.4579 21.1707 44.4579C23.5616 44.4579 25.1692 45.4079 25.3703 45.5126" fill="#F6F6F6"/>
<path d="M77.5464 40.21C77.0767 40.071 75.3403 39.5021 72.9885 39.5021C66.9053 39.5021 62.4398 43.8273 62.4398 49.7268C62.4398 56.0915 67.3693 59.9573 72.9885 59.9573C75.221 59.9573 76.9252 59.43 77.5464 59.2542V53.9515C77.3316 54.0705 75.6976 55 73.3469 55C70.0166 55 67.8685 52.6626 67.8685 49.7268C67.8685 46.7015 70.1095 44.4579 73.3469 44.4579C75.7377 44.4579 77.3453 45.4079 77.5464 45.5126" fill="#F6F6F6"/>
<path d="M32.2266 2.50473C32.2266 1.14315 31.1114 0.0389404 29.7445 0.0389404C28.3781 0.0389404 27.2629 1.14315 27.2629 2.50473V28.7363C27.2629 30.1058 28.3781 31.2095 29.7445 31.2095C31.1114 31.2095 32.2266 30.1058 32.2266 28.7363V2.50473ZM18.5947 11.8163C18.5947 10.4553 17.48 9.34947 16.1131 9.34947C14.7461 9.34947 13.6314 10.4553 13.6314 11.8163V23.8084C13.6314 25.1774 14.7461 26.2816 16.1131 26.2816C17.48 26.2816 18.5947 25.1774 18.5947 23.8084V11.8163ZM4.96322 18.6226C4.96322 17.261 3.84856 16.1574 2.48161 16.1574C1.11625 16.1574 0 17.261 0 18.6226V23.8084C0 25.1774 1.11625 26.2816 2.48161 26.2816C3.84856 26.2816 4.96322 25.1774 4.96322 23.8084" fill="#F6F6F6"/>
<path d="M27.2629 2.50473C27.2629 1.14315 28.3781 0.0389404 29.745 0.0389404C31.1114 0.0389404 32.2266 1.14315 32.2266 2.50473V28.7363C32.2266 30.1058 31.1114 31.2095 29.745 31.2095C28.3781 31.2095 27.2629 30.1058 27.2629 28.7363V2.50473ZM40.8948 11.8163C40.8948 10.4553 42.0095 9.34947 43.3764 9.34947C44.7434 9.34947 45.8581 10.4553 45.8581 11.8163V23.8084C45.8581 25.1774 44.7434 26.2816 43.3764 26.2816C42.0095 26.2816 40.8948 25.1774 40.8948 23.8084V11.8163ZM54.5263 18.6226C54.5263 17.261 55.6409 16.1574 57.0079 16.1574C58.3733 16.1574 59.4895 17.261 59.4895 18.6226V23.8084C59.4895 25.1774 58.3733 26.2816 57.0079 26.2816C55.6409 26.2816 54.5263 25.1774 54.5263 23.8084" fill="#F6F6F6"/>
<path d="M81.7734 2.50473C81.7734 1.14315 82.8886 0.0389404 84.2556 0.0389404C85.622 0.0389404 86.7372 1.14315 86.7372 2.50473V28.7363C86.7372 30.1058 85.622 31.2095 84.2556 31.2095C82.8886 31.2095 81.7734 30.1058 81.7734 28.7363V2.50473ZM95.4054 11.8163C95.4054 10.4553 96.5201 9.34947 97.887 9.34947C99.2539 9.34947 100.369 10.4553 100.369 11.8163V23.8084C100.369 25.1774 99.2539 26.2816 97.887 26.2816C96.5201 26.2816 95.4054 25.1774 95.4054 23.8084V11.8163ZM109.037 18.6226C109.037 17.261 110.152 16.1574 111.518 16.1574C112.884 16.1574 114 17.261 114 18.6226V23.8084C114 25.1774 112.884 26.2816 111.518 26.2816C110.152 26.2816 109.037 25.1774 109.037 23.8084" fill="#F6F6F6"/>
<path d="M86.7372 2.50473C86.7372 1.14315 85.622 0.0389404 84.2551 0.0389404C82.8886 0.0389404 81.7734 1.14315 81.7734 2.50473V28.7363C81.7734 30.1058 82.8886 31.2095 84.2551 31.2095C85.622 31.2095 86.7372 30.1058 86.7372 28.7363V2.50473ZM73.1052 11.8163C73.1052 10.4553 71.9906 9.34947 70.6236 9.34947C69.2567 9.34947 68.142 10.4553 68.142 11.8163V23.8084C68.142 25.1774 69.2567 26.2816 70.6236 26.2816C71.9906 26.2816 73.1052 25.1774 73.1052 23.8084V11.8163ZM59.4738 18.6226C59.4738 17.261 58.3591 16.1574 56.9922 16.1574C55.6268 16.1574 54.5106 17.261 54.5106 18.6226V23.8084C54.5106 25.1774 55.6268 26.2816 56.9922 26.2816C58.3591 26.2816 59.4738 25.1774 59.4738 23.8084" fill="#F6F6F6"/>
</g>
<defs>
<clipPath id="clip0_55_2">
<rect width="114" height="60" fill="white"/>
</clipPath>
</defs>
</svg>
