<svg width="185" height="46" viewBox="0 0 185 46" fill="none" xmlns="http://www.w3.org/2000/svg">
<g clip-path="url(#clip0_55_22)">
<path d="M23.2131 0C10.3729 0 0 10.5289 0 23.5622C0 33.9889 6.64671 42.8311 15.8615 45.9489C17.0196 46.1533 17.4728 45.4378 17.4728 44.8244C17.4728 44.2622 17.4224 42.4222 17.4224 40.4289C11.5814 41.5022 10.0708 38.9978 9.61758 37.6689C9.36581 37.0044 8.20767 34.9089 7.25095 34.3467C6.44529 33.8867 5.28715 32.8133 7.2006 32.7622C9.01334 32.7111 10.3225 34.4489 10.7757 35.1644C12.8906 38.7422 16.2139 37.72 17.5231 37.1067C17.7246 35.5733 18.3288 34.5511 18.9834 33.9378C13.797 33.3244 8.40909 31.3311 8.40909 22.2844C8.40909 19.7289 9.31546 17.5822 10.7757 15.9467C10.524 15.3333 9.71829 12.9311 11.0275 9.71111C11.0275 9.71111 12.9913 9.09778 17.4224 12.1133C19.2855 11.6022 21.2493 11.2956 23.2131 11.2956C25.1769 11.2956 27.1407 11.5511 29.0038 12.1133C33.4349 9.04667 35.3988 9.71111 35.3988 9.71111C36.6576 12.9311 35.8519 15.3844 35.6505 15.9467C37.1108 17.5822 38.0171 19.6778 38.0171 22.2844C38.0171 31.3311 32.5789 33.3244 27.3925 33.9378C28.2485 34.6533 28.9535 36.0844 28.9535 38.2822C28.9535 41.4511 28.9031 43.9556 28.9031 44.7733C28.9031 45.3867 29.3563 46.1533 30.5144 45.8978C39.6788 42.78 46.3255 33.9378 46.3255 23.5111C46.4766 10.5289 36.0533 0 23.2131 0Z" fill="#F6F6F6"/>
<path d="M111.584 34.2955H111.534C111.584 34.2955 111.584 34.2955 111.584 34.2955ZM111.584 34.2955C111.332 34.2955 110.678 34.4488 109.973 34.4488C107.757 34.4488 107.002 33.4266 107.002 32.0977V23.1533H111.483C111.735 23.1533 111.937 22.9488 111.937 22.5911V17.7355C111.937 17.4799 111.735 17.2755 111.483 17.2755H107.002V11.2955C107.002 11.0911 106.851 10.9377 106.599 10.9377H100.557C100.305 10.9377 100.154 11.0911 100.154 11.2955V17.4799C100.154 17.4799 97.0822 18.2466 96.8808 18.2977C96.6794 18.3488 96.5283 18.5533 96.5283 18.7577V22.6422C96.5283 22.9488 96.7297 23.2044 96.9815 23.2044H100.103V32.5577C100.103 39.5088 104.887 40.2244 108.16 40.2244C109.671 40.2244 111.433 39.7644 111.735 39.6111C111.886 39.5599 111.987 39.3555 111.987 39.1511V34.8577C112.037 34.5511 111.836 34.3466 111.584 34.2955ZM178.152 28.0599C178.152 22.8977 176.087 22.2333 173.922 22.4377C172.26 22.5399 170.901 23.4088 170.901 23.4088V33.4266C170.901 33.4266 172.261 34.3977 174.325 34.4488C177.246 34.5511 178.152 33.4777 178.152 28.0599ZM185 27.5999C185 37.3622 181.878 40.1733 176.44 40.1733C171.858 40.1733 169.34 37.8222 169.34 37.8222C169.34 37.8222 169.239 39.1511 169.088 39.3044C168.987 39.4577 168.887 39.5088 168.685 39.5088H164.506C164.204 39.5088 163.952 39.3044 163.952 39.0488L164.002 7.35994C164.002 7.10439 164.204 6.89994 164.456 6.89994H170.448C170.7 6.89994 170.901 7.10439 170.901 7.35994L170.851 18.0422C170.851 18.0422 173.167 16.5088 176.541 16.5088H176.591C180.015 16.5088 185 17.7866 185 27.5999ZM160.478 17.2755H154.586C154.284 17.2755 154.133 17.4799 154.133 17.8377V33.3244C154.133 33.3244 152.572 34.4488 150.457 34.4488C148.342 34.4488 147.738 33.4777 147.738 31.3311V17.7866C147.738 17.5311 147.537 17.3266 147.285 17.3266H141.293C141.041 17.3266 140.84 17.5311 140.84 17.7866V32.3533C140.84 38.6399 144.314 40.1733 149.047 40.1733C152.975 40.1733 156.147 37.9755 156.147 37.9755C156.147 37.9755 156.298 39.0999 156.349 39.2533C156.399 39.4066 156.6 39.5088 156.802 39.5088H160.578C160.881 39.5088 161.032 39.3044 161.032 39.0488L161.082 17.7355C161.032 17.5311 160.78 17.2755 160.478 17.2755ZM93.9099 17.2755H87.9178C87.666 17.2755 87.4646 17.5311 87.4646 17.8377V38.7422C87.4646 39.3044 87.8171 39.5088 88.3206 39.5088H93.7085C94.2624 39.5088 94.4135 39.2533 94.4135 38.7422V17.7355C94.4135 17.4799 94.1617 17.2755 93.9099 17.2755ZM90.9894 7.6155C88.8242 7.6155 87.1122 9.35328 87.1122 11.5511C87.1122 13.7488 88.8242 15.4866 90.9894 15.4866C93.1043 15.4866 94.8163 13.7488 94.8163 11.5511C94.8163 9.35328 93.1043 7.6155 90.9894 7.6155ZM137.315 6.89994H131.373C131.121 6.89994 130.92 7.10439 130.92 7.35994V19.0133H121.605V7.41106C121.605 7.1555 121.403 6.95106 121.151 6.95106H115.159C114.907 6.95106 114.706 7.1555 114.706 7.41106V39.0999C114.706 39.3555 114.958 39.5599 115.159 39.5599H121.151C121.403 39.5599 121.605 39.3555 121.605 39.0999V25.5044H130.92L130.87 39.0488C130.87 39.3044 131.071 39.5088 131.323 39.5088H137.315C137.567 39.5088 137.768 39.3044 137.768 39.0488V7.35994C137.768 7.1555 137.567 6.89994 137.315 6.89994ZM84.2923 20.9555V37.3111C84.2923 37.4133 84.242 37.6177 84.1413 37.6688C84.1413 37.6688 80.6165 40.2244 74.8258 40.2244C67.8266 40.2244 59.5686 37.9755 59.5686 23.3577C59.5686 8.68883 66.8196 5.67328 73.8691 5.72439C80.0123 5.72439 82.4796 7.10439 82.8321 7.35994C82.9328 7.51328 82.9831 7.6155 82.9831 7.76883L81.825 12.8288C81.825 13.0844 81.5732 13.3911 81.2711 13.2888C80.264 12.9822 78.7534 12.3688 75.1783 12.3688C71.0493 12.3688 66.6181 13.5444 66.6181 22.9999C66.6181 32.4555 70.8479 33.5288 73.8691 33.5288C76.4371 33.5288 77.3939 33.2222 77.3939 33.2222V26.6799H73.2648C72.9627 26.6799 72.711 26.4755 72.711 26.2199V20.9555C72.711 20.6999 72.9124 20.4955 73.2648 20.4955H83.7888C84.0909 20.4444 84.2923 20.6999 84.2923 20.9555Z" fill="#F6F6F6"/>
</g>
<defs>
<clipPath id="clip0_55_22">
<rect width="185" height="46" fill="white"/>
</clipPath>
</defs>
</svg>
