<svg width="155" height="33" viewBox="0 0 155 33" fill="none" xmlns="http://www.w3.org/2000/svg">
<g clip-path="url(#clip0_55_28)">
<path d="M62.5787 12.4323H67.6683C66.8192 7.10386 62.1341 3.39246 56.0368 3.39246C48.8225 3.39246 43.4089 8.61526 43.4089 17.3625C43.4089 25.9535 48.579 31.2819 56.1843 31.2819C63.0099 31.2819 67.8961 26.9589 67.8961 19.9607V16.7003H56.7093V20.5437H63.0635C62.9831 24.4157 60.3578 26.8665 56.2111 26.8665C51.5952 26.8665 48.4315 23.4609 48.4315 17.3097C48.4315 11.1981 51.6488 7.80566 56.1039 7.80566C59.4284 7.80566 61.7028 9.55466 62.5787 12.4323Z" fill="#F6F6F6"/>
<path d="M71.2609 30.9101H76.1338V10.5601H71.2609V30.9101ZM73.7186 7.32606C75.2669 7.32606 76.5315 6.15786 76.5315 4.72786C76.5315 3.29786 75.2669 2.11646 73.7186 2.11646C72.1703 2.11646 70.8923 3.28246 70.8923 4.72786C70.8923 6.17326 72.1479 7.32606 73.7096 7.32606H73.7186Z" fill="#F6F6F6"/>
<path d="M90.7255 10.56H86.6458V5.67163H81.773V10.56H78.8394V14.2714H81.773V25.5926C81.7462 29.4228 84.5747 31.3126 88.2344 31.2004C89.2093 31.1813 90.176 31.0205 91.1031 30.723L90.2809 26.9698C89.8152 27.0888 89.3366 27.1516 88.8555 27.1568C87.6289 27.1568 86.6458 26.7322 86.6458 24.7962V14.2604H90.7255V10.56Z" fill="#F6F6F6"/>
<path d="M94.4969 30.91H111.634V26.7872H99.4927V3.76196H94.4969V30.91Z" fill="#F6F6F6"/>
<path d="M120.968 31.3214C124.212 31.3214 126.149 29.8232 127.039 28.1138H127.199V30.91H131.891V17.2832C131.891 11.902 127.436 10.285 123.491 10.285C119.143 10.285 115.805 12.1924 114.728 15.9038L119.279 16.5418C119.762 15.1492 121.136 13.9568 123.524 13.9568C125.787 13.9568 127.025 15.0964 127.025 17.0984V17.1776C127.025 18.5548 125.557 18.623 121.909 19.0058C117.898 19.4304 114.062 20.6096 114.062 25.1966C114.049 29.2006 117.022 31.3214 120.968 31.3214ZM122.57 27.8014C120.537 27.8014 119.082 26.8862 119.082 25.124C119.082 23.2804 120.711 22.5126 122.881 22.2068C124.161 22.0352 126.719 21.7162 127.349 21.2146V23.6126C127.363 25.872 125.504 27.7948 122.57 27.7948V27.8014Z" fill="#F6F6F6"/>
<path d="M135.479 30.91H140.272V27.7024H140.553C141.322 29.1874 142.924 31.2686 146.479 31.2686C151.351 31.2686 155 27.4626 155 20.757C155 13.97 151.244 10.285 146.465 10.285C142.817 10.285 141.295 12.4454 140.553 13.9172H140.348V3.76196H135.479V30.91ZM140.259 20.7306C140.259 16.7706 141.981 14.2208 145.118 14.2208C148.362 14.2208 150.033 16.9378 150.033 20.7306C150.033 24.5234 148.338 27.3306 145.118 27.3306C142.008 27.3306 140.259 24.6796 140.259 20.7306Z" fill="#F6F6F6"/>
<path d="M34.2219 13.061L34.175 12.9378L29.4384 0.771774C29.3425 0.532891 29.1719 0.330246 28.9513 0.193173C28.7867 0.089414 28.5997 0.0250706 28.4053 0.00529867C28.2109 -0.0144733 28.0145 0.0108771 27.8318 0.0793174C27.6491 0.147758 27.4853 0.257385 27.3534 0.399411C27.2215 0.541438 27.1253 0.711913 27.0723 0.897174L23.8751 10.5354H10.9278L7.73056 0.897174C7.67723 0.71219 7.58074 0.542035 7.44879 0.400281C7.31683 0.258526 7.15306 0.149093 6.97054 0.0807088C6.78802 0.0123244 6.5918 -0.0131197 6.39753 0.00640646C6.20325 0.0259326 6.0163 0.0898879 5.85157 0.193173C5.63097 0.330246 5.46038 0.532891 5.36451 0.771774L0.630165 12.94L0.581011 13.061C-0.100595 14.815 -0.184567 16.7398 0.341756 18.545C0.868078 20.3501 1.97616 21.9379 3.49892 23.0688L3.5168 23.082L3.55701 23.1128L10.7624 28.4302L14.3372 31.09L16.5089 32.707C16.7637 32.8965 17.0743 32.999 17.3936 32.999C17.713 32.999 18.0236 32.8965 18.2784 32.707L20.4501 31.09L24.0248 28.4302L31.2816 23.082L31.3017 23.0666C32.8244 21.9361 33.9326 20.3489 34.4593 18.5441C34.9861 16.7394 34.9027 14.815 34.2219 13.061Z" fill="#F6F6F6"/>
<path d="M34.2218 13.0614L34.1749 12.9382C31.8671 13.4045 29.6926 14.3677 27.8073 15.7586L17.4069 23.5026L24.0292 28.4306L31.286 23.0824L31.3061 23.067C32.828 21.936 33.9353 20.3485 34.4612 18.5438C34.9871 16.7391 34.9031 14.815 34.2218 13.0614Z" fill="#F6F6F6"/>
<path d="M10.7623 28.4306L14.3371 31.0904L16.5088 32.7074C16.7636 32.8969 17.0742 32.9994 17.3935 32.9994C17.7129 32.9994 18.0235 32.8969 18.2783 32.7074L20.45 31.0904L24.0247 28.4306L17.4025 23.5026L10.7623 28.4306Z" fill="#F6F6F6"/>
<path d="M6.99541 15.7586C5.11074 14.3684 2.937 13.406 0.630073 12.9404L0.58092 13.0614C-0.100687 14.8155 -0.184658 16.7402 0.341664 18.5454C0.867986 20.3506 1.97607 21.9383 3.49883 23.0692L3.51671 23.0824L3.55692 23.1132L10.7623 28.4306L17.3891 23.5026L6.99541 15.7586Z" fill="#F6F6F6"/>
</g>
<defs>
<clipPath id="clip0_55_28">
<rect width="155" height="33" fill="white"/>
</clipPath>
</defs>
</svg>
