<svg width="153" height="25" viewBox="0 0 153 25" fill="none" xmlns="http://www.w3.org/2000/svg">
<path d="M104.863 12.45C107.265 12.45 109.581 12.8184 111.769 13.5024L111.601 13.4551V15.7388C111.254 19.3696 108.306 22.1848 104.725 22.1848C104.455 22.1848 104.185 22.169 103.919 22.1375L103.95 22.1427C100.859 22.1427 98.1867 20.4273 98.1867 17.4542C98.1867 14.3812 100.579 12.4553 104.858 12.4553L104.863 12.45ZM142.371 3.36245C146.405 3.47822 149.634 6.88277 149.634 11.0661C149.634 11.1661 149.634 11.2661 149.629 11.3608V11.345H135.108C135.123 7.10903 138.311 3.6466 142.345 3.35719L142.371 3.36245ZM105.919 0.531466C105.883 0.531466 105.837 0.531466 105.796 0.531466C105.485 0.531466 105.179 0.547254 104.873 0.573565L104.914 0.5683C104.715 0.557776 104.48 0.552518 104.241 0.552518C101.997 0.552518 99.8647 1.05241 97.9469 1.95749L98.0438 1.91539C97.5032 2.12587 97.1309 2.65208 97.1309 3.273C97.1309 3.30983 97.1309 3.34667 97.136 3.3835V3.37824C97.1717 4.20964 97.8245 4.8674 98.6304 4.88319C98.8548 4.8674 99.0588 4.80952 99.2475 4.72006L99.2373 4.72533C100.65 4.04652 102.303 3.6466 104.047 3.6466C104.225 3.6466 104.399 3.65187 104.577 3.65713H104.552C108.953 3.65713 111.371 5.8514 111.371 10.0926V10.9135C109.351 10.2873 107.031 9.92423 104.633 9.92423C104.531 9.92423 104.429 9.92423 104.327 9.92423H104.343C98.6559 9.92423 94.6572 12.5553 94.6572 17.5542L94.6368 17.5279C94.9173 21.6744 98.2479 24.9211 102.313 24.9211C102.619 24.9211 102.92 24.9053 103.216 24.8685L103.18 24.8737C103.267 24.8737 103.369 24.879 103.465 24.879C106.714 24.879 109.596 23.2898 111.432 20.8219L111.448 20.7956V23.053C111.448 23.0583 111.448 23.0688 111.448 23.0741C111.448 23.9686 112.151 24.7001 113.024 24.7001C113.039 24.7001 113.054 24.7001 113.069 24.7001C113.08 24.7001 113.085 24.7001 113.095 24.7001C113.988 24.7001 114.712 23.9529 114.712 23.032C114.712 23.011 114.712 22.9952 114.712 22.9741V9.93475C114.722 9.77689 114.727 9.59798 114.727 9.41381C114.727 6.95643 113.804 4.7148 112.294 3.05199L112.299 3.05725C110.601 1.526 108.377 0.578828 105.934 0.526207H105.924L105.919 0.531466ZM142.529 0.520943C136.526 0.726163 131.732 5.79878 131.732 12.0238C131.732 12.2606 131.737 12.4921 131.752 12.7236V12.6921C131.742 12.8762 131.737 13.0867 131.737 13.3025C131.737 19.7064 136.766 24.9 142.968 24.9106L142.917 24.9947C143.014 25 143.131 25 143.243 25C146.436 25 149.323 23.6424 151.388 21.4534C151.694 21.1798 151.888 20.7798 151.888 20.3326C151.888 19.5169 151.245 18.8539 150.455 18.8539C150.088 18.8539 149.751 18.996 149.496 19.2328C147.844 20.9219 145.574 21.9638 143.065 21.9638C143.044 21.9638 143.024 21.9638 143.008 21.9638C143.003 21.9638 142.998 21.9638 142.993 21.9638C138.704 21.9638 135.22 18.433 135.113 14.0392V14.0286H151.398C152.266 14.0234 152.964 13.2972 152.964 12.4027C152.985 12.1343 153 11.8238 153 11.5081C153 5.50411 148.333 0.626186 142.539 0.526207H142.529V0.520943ZM77.7241 0.468326C76.9335 0.520947 76.2909 1.11029 76.1328 1.88381V1.89434L70.3184 19.1696L64.5703 1.9417C64.3867 1.11029 63.6777 0.494632 62.826 0.494632C62.826 0.494632 62.826 0.494632 62.8209 0.494632C62.8107 0.494632 62.8056 0.494632 62.7954 0.494632C61.8773 0.494632 61.1276 1.24711 61.1021 2.18901C61.1276 2.53631 61.2092 2.86255 61.3265 3.16249L61.3163 3.14144L68.2629 23.1109L68.3905 23.0636C68.6098 23.9581 69.3697 24.6211 70.2878 24.6527C71.2109 24.6474 71.9811 23.9739 72.1596 23.0741V23.0636L77.9179 6.07767L83.6303 23.0636C83.8088 23.9739 84.5738 24.6527 85.497 24.6527H85.6143C86.5171 24.6001 87.2617 23.9476 87.481 23.0741L87.4861 23.0583L94.4787 3.08356C94.5858 2.80468 94.6623 2.48369 94.6878 2.14692V2.13639C94.6572 1.2208 93.933 0.489373 93.0455 0.489373C93.0302 0.489373 93.0149 0.489373 92.9996 0.489373C92.9945 0.489373 92.9945 0.489373 92.9894 0.489373C92.1886 0.489373 91.5154 1.07346 91.3573 1.85224V1.86277L85.5072 19.1591L79.7438 1.88908C79.5398 1.06294 78.8309 0.463062 77.9791 0.463062C77.974 0.463062 77.974 0.463062 77.9689 0.463062H77.7343L77.7241 0.468326ZM120.649 0.415704C119.71 0.431491 118.955 1.2208 118.955 2.18901C118.955 2.19954 118.955 2.21006 118.955 2.21533H118.971V22.8741C118.96 22.9478 118.955 23.032 118.955 23.1162C118.955 24.0949 119.725 24.8895 120.674 24.8895C121.623 24.8895 122.393 24.0949 122.393 23.1162C122.393 23.032 122.388 22.9478 122.378 22.8636V22.8741V14.839C122.327 14.4654 122.301 14.0339 122.301 13.5971C122.301 8.69817 125.841 4.65692 130.426 4.04126L130.472 4.03599C131.329 3.94128 131.992 3.19933 131.992 2.29425C131.992 2.27321 131.992 2.25216 131.992 2.23111V2.23637C131.992 2.21532 131.992 2.18901 131.992 2.1627C131.992 1.22606 131.257 0.468326 130.349 0.468326C130.329 0.468326 130.314 0.468326 130.293 0.468326C126.743 0.731429 123.765 3.00989 122.408 6.19343L122.383 6.25658V2.22059C122.383 2.2048 122.383 2.18375 122.383 2.16797C122.383 1.19975 121.623 0.420964 120.689 0.420964C120.679 0.420964 120.664 0.420964 120.654 0.420964L120.649 0.415704ZM3.18261 0.0210517C2.72358 0.0368378 2.29515 0.152599 1.90753 0.347295L1.92793 0.336772C0.785452 0.847191 0 1.99958 0 3.34667C0 3.87813 0.122408 4.38329 0.341723 4.83056L0.331522 4.80952L7.58421 21.085C8.72668 23.5845 10.0069 24.979 12.1796 24.979C14.3575 24.979 15.6325 23.5319 16.7699 21.085L23.1606 6.70912C23.2984 6.3513 23.6299 6.10398 24.0175 6.10398C24.0379 6.10398 24.0583 6.10398 24.0838 6.10398H24.0787C24.6346 6.1145 25.0784 6.58283 25.0784 7.15639V21.085C25.0682 21.1745 25.0631 21.2797 25.0631 21.3902C25.0631 23.3319 26.5881 24.9106 28.4752 24.9106C30.3623 24.9106 31.8873 23.3372 31.8873 21.3902C31.8873 21.285 31.8822 21.1798 31.872 21.0745V21.0903V9.71375C31.872 9.67165 31.8669 9.61903 31.8669 9.56641C31.8669 7.6405 33.3817 6.07241 35.2535 6.07241C35.3352 6.07241 35.4117 6.07767 35.4882 6.08293H35.478C35.5188 6.08293 35.5698 6.07767 35.6157 6.07767C37.4467 6.07767 38.9309 7.60893 38.9309 9.498C38.9309 9.57167 38.9309 9.64534 38.9258 9.71375V9.70322V21.0798C38.9105 21.2008 38.9003 21.3429 38.9003 21.485C38.9003 23.4109 40.4151 24.979 42.2869 24.979C42.292 24.979 42.2971 24.979 42.3022 24.979C44.1944 24.9737 45.7296 23.3898 45.7296 21.4323C45.7296 21.3113 45.7245 21.1903 45.7092 21.0693V21.085V9.70848C45.7092 9.66639 45.7041 9.61377 45.7041 9.56115C45.7041 7.63524 47.2189 6.06714 49.0908 6.06714C49.1673 6.06714 49.2387 6.06715 49.3152 6.07241H49.305C49.3509 6.07241 49.4019 6.06714 49.458 6.06714C51.289 6.06714 52.7732 7.5984 52.7732 9.48748C52.7732 9.56115 52.7732 9.63481 52.7681 9.70322V9.6927V21.0693C52.7579 21.185 52.7477 21.3166 52.7477 21.4481C52.7477 23.3898 54.2727 24.9632 56.1547 24.9632C58.0368 24.9632 59.5618 23.3898 59.5618 21.4481C59.5618 21.3166 59.5567 21.1903 59.5414 21.0587V21.0745V8.12461C59.5312 3.65187 56.0119 0.031575 51.6766 0.031575C51.5644 0.031575 51.4573 0.0315721 51.3502 0.0368342H51.3655C48.5195 0.0894547 45.9592 1.29973 44.1026 3.2309C42.6184 1.27342 40.3335 0.0263109 37.7629 0.0263109C37.5385 0.0263109 37.3141 0.0368356 37.0948 0.0526217H37.1254C34.4579 0.310462 32.0862 1.47338 30.2756 3.23617L30.2807 3.2309C28.822 1.35761 26.634 0.147339 24.1705 0.0526217H24.1552C24.0634 0.0473597 23.9614 0.0473575 23.8543 0.0473575C20.6003 0.0473575 17.8308 2.18375 16.7954 5.16734L16.7801 5.21996L12.1337 16.5018L6.18671 2.01537L6.25812 1.98906C5.74808 0.810357 4.62091 0 3.31012 0C3.26422 0 3.22341 2.1275e-06 3.17751 0.00526418L3.18261 0.0210517Z" fill="#F6F6F6"/>
</svg>
