<svg width="238" height="35" viewBox="0 0 238 35" fill="none" xmlns="http://www.w3.org/2000/svg">
<path d="M14.1589 16.3886V2.78764L0 4.79357V16.3886H14.1589ZM15.4966 16.3886H34.1146V0L15.4966 2.67566V16.3886ZM14.1589 17.7263H0V29.4324L14.1589 31.3271V17.7263ZM15.4966 17.7263V31.5503L34.1146 34.1146V17.7263H15.4966Z" fill="#F6F6F6"/>
<path d="M174.808 22.1856C174.808 23.8579 174.251 25.3072 173.025 26.1985C171.798 27.202 170.126 27.6478 168.008 27.6478C167.227 27.6478 166.335 27.5365 165.443 27.3137C164.44 27.0908 163.771 26.7566 163.437 26.5334V23.7461C163.994 24.3035 164.775 24.7493 165.778 25.0838C166.781 25.4184 167.562 25.641 168.454 25.641C171.129 25.641 172.355 24.6376 172.355 22.5194C172.355 21.6273 172.021 20.9588 171.464 20.2891C170.906 19.6208 169.791 18.8398 168.008 17.837C166.335 16.8335 165.109 15.9415 164.44 15.1612C163.771 14.269 163.437 13.2654 163.437 12.0392C163.437 10.4789 163.994 9.1407 165.221 8.13737C166.447 7.13386 168.008 6.57666 169.903 6.57666C171.687 6.57666 173.025 6.79972 173.916 7.35747V10.0331C172.801 9.14106 171.464 8.80656 169.791 8.80656C168.677 8.80656 167.785 9.14106 167.004 9.69881C166.335 10.2562 165.889 11.0365 165.889 11.9287C165.889 12.5975 166.001 13.1551 166.224 13.601C166.447 14.0466 166.781 14.3815 167.338 14.8274C167.896 15.2732 168.676 15.7191 169.902 16.388C171.686 17.3911 173.024 18.3944 173.692 19.2867C174.473 19.9557 174.808 21.0706 174.808 22.1856ZM189.413 20.625H179.044C179.044 22.2972 179.491 23.5238 180.382 24.4151C181.162 25.307 182.389 25.7529 183.838 25.7529C185.511 25.7529 186.96 25.1957 188.409 24.1922V26.4223C187.183 27.3142 185.399 27.8716 183.281 27.8716C181.162 27.8716 179.601 27.2026 178.375 25.8647C177.261 24.5271 176.592 22.6317 176.592 20.29C176.592 18.8407 176.925 17.5031 177.484 16.3881C178.041 15.1621 178.822 14.27 179.936 13.6012C180.939 12.9322 182.054 12.5979 183.392 12.5979C185.288 12.5979 186.737 13.2664 187.851 14.4929C188.966 15.7193 189.413 17.5031 189.413 19.6215L189.413 20.625ZM187.071 18.6179C187.071 17.2798 186.737 16.1651 186.068 15.4961C185.399 14.7154 184.508 14.3815 183.392 14.3815C182.277 14.3815 181.386 14.8276 180.605 15.6079C179.824 16.3885 179.379 17.3918 179.155 18.7295H187.071V18.6179ZM199.669 15.0507C199.223 14.7158 198.665 14.6049 197.885 14.6049C196.882 14.6049 195.989 15.0507 195.321 16.0542C194.652 17.0573 194.318 18.2841 194.318 19.8444V27.314H191.976V12.7091H194.318V15.7195H194.429C194.764 14.7158 195.209 13.9355 195.878 13.3783C196.547 12.8206 197.328 12.4863 198.22 12.4863C198.777 12.4863 199.334 12.5977 199.669 12.7091V15.0507ZM214.385 12.7091L208.588 27.314H206.246L200.672 12.7091H203.236L206.915 23.3003C207.138 23.8575 207.25 24.5269 207.361 25.3068H207.472C207.584 24.638 207.695 23.9693 207.919 23.3003L211.82 12.5979H214.384V12.709L214.385 12.7091ZM227.54 20.625H217.284C217.284 22.2972 217.73 23.5238 218.621 24.4151C219.402 25.307 220.627 25.7529 222.077 25.7529C223.749 25.7529 225.199 25.1957 226.648 24.1922V26.4223C225.422 27.3142 223.638 27.8716 221.52 27.8716C219.402 27.8716 217.84 27.2026 216.615 25.8647C215.5 24.5271 214.831 22.6317 214.831 20.29C214.831 18.8407 215.166 17.5031 215.723 16.3881C216.28 15.1621 217.061 14.27 218.176 13.6012C219.179 12.9322 220.294 12.5979 221.632 12.5979C223.526 12.5979 224.976 13.2664 226.09 14.4929C227.206 15.7193 227.652 17.5031 227.652 19.6215V20.6247H227.54L227.54 20.625ZM225.199 18.6179C225.199 17.2798 224.865 16.1651 224.196 15.4961C223.527 14.7154 222.635 14.3815 221.52 14.3815C220.405 14.3815 219.514 14.8276 218.733 15.6079C217.953 16.3885 217.506 17.3918 217.284 18.7295H225.199V18.6179ZM237.797 15.0507C237.351 14.7158 236.793 14.6049 236.013 14.6049C235.009 14.6049 234.118 15.0507 233.449 16.0542C232.78 17.0573 232.445 18.2841 232.445 19.8444V27.314H230.105V12.7091H232.445V15.7195H232.557C232.891 14.7158 233.338 13.9355 234.006 13.3783C234.675 12.8206 235.456 12.4863 236.347 12.4863C236.905 12.4863 237.462 12.5977 237.797 12.7091V15.0507H237.797Z" fill="#F6F6F6"/>
<path d="M70.9044 6.91212L65.1069 27.3139H62.3202L58.0833 12.3749C57.9724 11.8171 57.8604 11.1485 57.7493 10.2566H57.6373L57.3034 12.2636L53.0666 27.2023H50.2796L44.3708 6.91212H46.9351L51.2829 22.6314C51.5056 23.3004 51.6174 23.9696 51.6174 24.638H51.7286C51.7286 24.0808 51.9513 23.4115 52.1748 22.6314L56.746 6.91194H59.0866L63.4346 22.7428C63.5464 23.3002 63.6575 23.9696 63.7696 24.638C63.7696 24.1921 63.9923 23.5238 64.1038 22.6314L68.3402 6.91194L70.9044 6.91212ZM75.5871 7.91544C75.5871 8.36121 75.4753 8.69571 75.1411 9.03039C74.8064 9.36453 74.4721 9.47615 74.0258 9.47615C73.5804 9.47615 73.2455 9.36453 72.9112 9.03039C72.5767 8.69571 72.4655 8.36121 72.4655 7.91544C72.4655 7.46932 72.5765 7.13482 72.9112 6.80049C73.2457 6.46617 73.5802 6.35473 74.0258 6.35473C74.4719 6.35473 74.8066 6.46617 75.1411 6.80049C75.364 7.13482 75.5871 7.4695 75.5871 7.91544ZM75.1409 27.3141H72.7998V12.7092H75.1409V27.3141ZM90.7488 27.3141H88.408V18.9522C88.408 15.8308 87.2925 14.2701 85.0629 14.2701C83.9482 14.2701 82.9448 14.7159 82.1644 15.6079C81.3843 16.4996 81.0496 17.6142 81.0496 18.9522V27.3141H78.7087V12.7092H81.0498V15.162H81.1614C82.276 13.2666 83.8373 12.3751 85.9552 12.3751C87.5157 12.3751 88.7419 12.9324 89.6345 13.9356C90.5262 14.9389 90.8607 16.4996 90.8607 18.3952V27.3141H90.7488ZM107.025 27.3141H104.684V24.8611H104.573C103.458 26.7569 101.786 27.648 99.5562 27.648C97.6611 27.648 96.2117 26.9796 95.0969 25.6415C93.9823 24.3041 93.4248 22.5199 93.4248 20.29C93.4248 17.838 93.9823 15.9424 95.2084 14.493C96.4348 13.0437 97.9957 12.2636 100.113 12.2636C102.12 12.2636 103.569 13.0437 104.461 14.6048H104.573V5.68555H106.914V27.3137L107.025 27.3141ZM104.684 20.7365V18.6183C104.684 17.3913 104.238 16.3882 103.458 15.6081C102.677 14.8277 101.674 14.3817 100.559 14.3817C99.1101 14.3817 97.9953 14.9387 97.2147 15.9424C96.4342 16.9456 95.9881 18.395 95.9881 20.29C95.9881 21.9624 96.323 23.3004 97.1034 24.3039C97.8837 25.3069 98.8866 25.753 100.225 25.753C101.562 25.753 102.566 25.3069 103.347 24.3039C104.238 23.4115 104.684 22.1856 104.684 20.7365ZM124.306 19.9557C124.306 22.2969 123.637 24.1921 122.299 25.5301C120.961 26.9796 119.177 27.6482 116.948 27.6482C114.83 27.6482 113.046 26.9796 111.82 25.6415C110.481 24.3041 109.924 22.4087 109.924 20.179C109.924 17.7267 110.593 15.8313 111.931 14.4933C113.269 13.0439 115.053 12.3752 117.394 12.3752C119.512 12.3752 121.296 13.0439 122.522 14.3819C123.637 15.7195 124.306 17.6142 124.306 19.9557ZM121.853 20.067C121.853 18.2838 121.407 16.8343 120.627 15.8308C119.846 14.8275 118.62 14.3815 117.17 14.3815C115.721 14.3815 114.495 14.9387 113.603 15.8308C112.711 16.8343 112.265 18.2836 112.265 20.067C112.265 21.8509 112.711 23.189 113.603 24.1923C114.495 25.1958 115.721 25.6415 117.17 25.6415C118.731 25.6415 119.846 25.1958 120.627 24.1923C121.518 23.3004 121.853 21.8509 121.853 20.067ZM145.599 12.7092L141.251 27.3141H138.798L135.788 16.8345C135.677 16.4998 135.566 16.054 135.566 15.497H135.454C135.454 15.8312 135.343 16.2771 135.12 16.8345L131.886 27.3141H129.546L125.086 12.7092H127.539L130.549 23.7465C130.66 24.0808 130.66 24.527 130.772 25.0842H130.883C130.883 24.7497 130.994 24.3039 131.106 23.7465L134.45 12.8208H136.569L139.579 23.8578C139.69 24.1923 139.69 24.6382 139.802 25.1958H139.913C139.913 24.7497 140.024 24.3039 140.136 23.8578L143.146 12.8208H145.598V12.7092H145.599ZM155.521 23.4115C155.521 24.638 155.075 25.7528 154.072 26.5334C153.068 27.3137 151.842 27.7595 150.17 27.7595C148.832 27.7595 147.606 27.4251 146.602 26.8679V24.3039C147.717 25.1958 149.055 25.7532 150.393 25.7532C152.288 25.7532 153.18 25.0842 153.18 23.7465C153.18 23.1889 152.957 22.7432 152.623 22.4087C152.288 22.0744 151.396 21.6282 150.17 20.9594C148.832 20.4019 147.94 19.8445 147.383 19.1755C146.826 18.5066 146.602 17.7264 146.602 16.6116C146.602 15.3849 147.048 14.3817 148.052 13.6016C149.055 12.8208 150.282 12.3751 151.731 12.3751C152.846 12.3751 153.961 12.5979 154.852 13.0437V15.3849C153.849 14.716 152.846 14.3815 151.508 14.3815C150.727 14.3815 150.17 14.6046 149.613 14.9385C149.167 15.2734 148.944 15.8308 148.944 16.388C148.944 17.057 149.167 17.5029 149.501 17.8378C149.835 18.172 150.615 18.6183 151.731 19.064C153.068 19.6214 154.072 20.2902 154.63 20.9594C155.298 21.6282 155.521 22.4083 155.521 23.4115Z" fill="#F6F6F6"/>
</svg>
