<svg width="122" height="121" viewBox="0 0 122 121" fill="none" xmlns="http://www.w3.org/2000/svg">
<g clip-path="url(#clip0_55_26)">
<path fill-rule="evenodd" clip-rule="evenodd" d="M16 46.5869V72.785H28.3447C33.7733 72.785 40.7256 69.2733 40.7256 59.6707C40.7256 49.1699 32.6444 46.5869 25.26 46.5869H16ZM25.1215 54.6794H26.712C29.2055 54.6794 31.3301 56.863 31.3631 59.7991C31.3631 59.8011 31.3631 59.8033 31.3631 59.8052C31.3301 62.7414 29.4345 64.9189 26.9409 64.9189H25.1215V54.6794Z" fill="#F6F6F6"/>
<path fill-rule="evenodd" clip-rule="evenodd" d="M69.9598 46.5869V72.7865H87.0466V64.5025H79.0001V46.5869H69.9598Z" fill="#F6F6F6"/>
<path fill-rule="evenodd" clip-rule="evenodd" d="M61.8408 50.5641L49.2185 58.6437L47.0198 57.1421L47.0247 57.1428L59.9354 48.7948L59.9595 48.8119L54.0559 45.002L31.5696 59.5215L54.1705 74.0029L76.5 59.5572L70.0339 55.5489L57.1616 63.7828L54.9985 62.2871L67.5096 54.2174L61.8408 50.5641Z" fill="#F6F6F6"/>
<path fill-rule="evenodd" clip-rule="evenodd" d="M88.6721 46.5845V72.7559H105.759V64.5024H97.7124V46.5845H88.6721Z" fill="#F6F6F6"/>
<path fill-rule="evenodd" clip-rule="evenodd" d="M102.198 46.543H103.717V46.9099H103.158V48.5692H102.756V46.9099H102.198V46.543Z" fill="#F6F6F6"/>
<path fill-rule="evenodd" clip-rule="evenodd" d="M104.777 48.3305L104.29 47.1055V48.5515H103.915V46.5443H104.533L104.958 47.7658L105.383 46.5443H106.001V48.5515H105.626V47.1055L105.139 48.3305H104.777Z" fill="#F6F6F6"/>
</g>
<defs>
<clipPath id="clip0_55_26">
<rect width="90" height="29" fill="white" transform="translate(16 45.0024)"/>
</clipPath>
</defs>
</svg>
