<svg width="122" height="78" viewBox="0 0 122 78" fill="none" xmlns="http://www.w3.org/2000/svg">
<path fill-rule="evenodd" clip-rule="evenodd" d="M35.2896 54.9554C35.5735 54.9554 35.844 55.0084 36.0939 55.1043C35.8233 55.2598 35.6397 55.5508 35.6397 55.8833C35.6397 56.3804 36.0459 56.7826 36.5471 56.7826C36.8903 56.7826 37.1882 56.5936 37.3426 56.3144C37.4511 56.5746 37.5119 56.8601 37.5119 57.1598C37.5119 58.3772 36.5167 59.3639 35.2896 59.3639C34.0624 59.3639 33.0669 58.3772 33.0669 57.1598C33.0669 55.9421 34.0624 54.9554 35.2896 54.9554ZM35.2896 60.9304C33.1931 60.9304 31.4872 59.2391 31.4872 57.1598C31.4872 55.0805 33.1931 53.3889 35.2896 53.3889C37.3858 53.3889 39.0914 55.0805 39.0914 57.1598C39.0914 59.2391 37.3858 60.9304 35.2896 60.9304ZM103.629 36.2183C92.8318 64.5928 68.4487 77.2314 39.702 77.2314C26.1193 77.2314 15.2834 72.598 8.3531 64.8722L8.40417 64.8388C10.401 64.9392 12.1877 64.9732 14.0015 64.9732C15.66 64.9732 17.2823 64.9561 18.7848 64.8722C18.9155 64.865 19.0791 64.8469 19.2088 64.8388C19.2101 64.8385 19.6724 64.8086 19.4463 64.805C23.2647 64.5714 26.2245 64.045 28.9846 63.2638C28.984 63.2641 28.9852 63.2635 28.9846 63.2638C29.4861 63.1216 29.9743 62.9711 30.4403 62.811C30.9616 62.6316 31.2376 62.0673 31.0571 61.5502C30.8765 61.0329 30.3078 60.7585 29.7862 60.9385C26.2805 62.1432 21.6555 62.8065 15.9874 62.931C13.1033 62.9943 9.94895 62.919 6.52957 62.701C5.82223 61.7643 5.16717 60.7908 4.56834 59.7827L3.62178 58.066C0.762008 52.4898 -0.490053 45.9758 0.17443 38.9015H83.3491C90.182 38.9015 96.8551 36.3724 100.022 33.5825C94.3474 29.0063 94.9097 18.1365 98.5264 13.9887C101.665 16.4901 106.727 21.759 105.856 28.4664C109.806 26.4971 116.666 25.5239 122 28.577C118.651 35.0607 111.289 36.9977 103.629 36.2183ZM11.4633 36.8994H22.7109V25.7434H11.4633V36.8994ZM24.4411 36.8994H35.6899V25.7434H24.4411V36.8994ZM24.4411 24.0274H35.6899V12.8717H24.4411V24.0274ZM37.4198 36.8994H48.668V25.7434H37.4198V36.8994ZM37.4198 24.0274H48.668V12.8717H37.4198V24.0274ZM50.3979 36.8994H61.6461V25.7434H50.3979V36.8994ZM50.3979 24.0274H61.6461V12.8717H50.3979V24.0274ZM50.3979 11.156H61.6461V0H50.3979V11.156ZM63.376 36.8994H74.6242V25.7434H63.376V36.8994Z" fill="#F6F6F6"/>
</svg>
