<svg width="68" height="68" viewBox="0 0 68 68" fill="none" xmlns="http://www.w3.org/2000/svg">
<path d="M67.6226 33.8113C67.6226 15.1371 52.4855 0 33.8113 0C33.3022 0 32.7956 0.0128555 32.2916 0.0360031L25.3755 19.0445H31.3992C34.9826 19.0445 36.9138 21.8037 35.6872 25.1737L27.1563 48.618L19.9934 48.6167L29.1479 23.488H23.7619L14.6074 48.6167H7.44191L18.2062 19.0445L24.6825 1.24846C10.4441 5.23171 0 18.3013 0 33.8113C0 49.7816 11.0741 63.1649 25.9618 66.7046L32.2363 49.4614H32.2414L43.3104 19.0445H56.5035C60.0907 19.0445 62.0206 21.8037 60.794 25.1737L53.2981 45.7649C52.7272 47.3335 50.895 48.6167 49.2261 48.6167H39.7168L32.8071 67.6072C33.1402 67.6162 33.4757 67.6226 33.8113 67.6226C52.4855 67.6226 67.6226 52.4842 67.6226 33.8113Z" fill="#F6F6F6"/>
<path d="M54.2701 23.47H48.8867L41.347 44.1564H46.7305L54.2701 23.47Z" fill="#F6F6F6"/>
</svg>
