<svg xmlns="http://www.w3.org/2000/svg" viewBox="0 0 768 384"><g fill="none" stroke-width="2"><path stroke="gray" d="M427.21 126.88c-.72-4.19 0-8.12 5.23-7.32a1 1 0 0 0 1.13-1.2c-.36-1.61-2.66-2.08-4.15-1.62-3.59 1.09-5.07 3.8-5.15 7.37q-.03 1.32-.04 2.65a1 1 0 0 1-1 .99h-1.98a1 1 0 0 0-1 1v.5a1 1 0 0 0 1 1h2a1 1 0 0 1 1 1v17.36a1 1 0 0 0 1.04 1l.93-.03a1 1 0 0 0 .96-1l.01-17.31a1 1 0 0 1 .96-1q1.12-.05 2.24-.02c1.35.03 3.08-.61 1.81-2.25a.98.97 69.7 0 0-.81-.38l-3.17.08a.99.99 0 0 1-1.01-.82" vector-effect="non-scaling-stroke"/><path stroke="#80d6f7" d="M158.25 183.92a.35.35 0 0 0 .35.35l75.8-.03a.35.35 0 0 0 .35-.35v-66.25a.35.35 0 0 0-.4-.35l-75.8 10.44a.35.35 0 0 0-.3.35v55.84" vector-effect="non-scaling-stroke"/><path stroke="gray" d="M317.08 120.14a2.01 2.01 0 0 0-2.01-2.01 2.01 2.01 0 0 0-2.01 2.01 2.01 2.01 0 0 0 2.01 2.01 2.01 2.01 0 0 0 2.01-2.01m-26.47 22.92q-4.87-11.29-10.07-22.42c-.74-1.59-1.88-2.27-3.51-1.42a1.02 1.01-14.5 0 0-.53.89v28.6a1 1 0 0 0 1.15.99l.76-.12a.99.99 0 0 0 .85-.99l-.04-20.59q-.01-3.65 1.53-.34l9.87 21.32q.91 1.97 1.82-.01 5.3-11.62 10.92-23.7.12-.26.2-.56c.63-2.36.67.09.63.29-1.44 6.29-.36 15.16-.54 23.52a1.01.99-86.2 0 0 .88 1.02l.86.1a1.01 1-86.9 0 0 1.11-1v-28.66a1 .99-82.4 0 0-.73-.96c-1.7-.49-2.5.29-3.23 1.83q-5.26 11.03-10.09 22.21-.92 2.12-1.84 0m146.59-11.81q.09 6.72.31 13.42.18 5.26 5.5 5.38 2.04.05 2.68-1.43a1.01 1.01 0 0 0-.82-1.4q-.39-.03-.79.04c-2.3.4-3.94-.22-4.03-2.94q-.23-7.6.03-13.48a1 1 0 0 1 1.35-.89q3.78 1.43 4.28-1a1 1 0 0 0-.98-1.2H441a1 1 0 0 1-1-1v-4.3a1 1 0 0 0-1.14-.99q-.39.06-.7.26-.56.37-.71 1.43-.24 1.79-.24 3.61a1 .99 88.2 0 1-.93 1l-1.8.12q-1.31.07-1.03 1.42a1 .99 86.4 0 0 .89.8l1.94.16a1.01 1 2.2 0 1 .92.99m-100.36-3.56c-14.57-5.11-21.1 17.05-8.51 22.07q4.22 1.67 8.67-.54 1.32-.66 1.05-1.84a1 1 0 0 0-1.36-.7c-10.81 4.46-15.83-8.13-9.87-14.62q4.03-4.4 9.78-1.65a1.01 1.01 0 0 0 1.39-.59q.5-1.55-1.15-2.13m27.946 22.763a11.82 10.85 93.9 0 0 11.629-11.055 11.82 10.85 93.9 0 0-10.021-12.53 11.82 10.85 93.9 0 0-11.629 11.054 11.82 10.85 93.9 0 0 10.021 12.53m20.844-20.512q2.73-1.14 5.44.42a1 1 0 0 0 1.5-.83l.03-.73a1 1 0 0 0-.63-.96c-4.46-1.77-10.68-.54-11.65 4.78-1.19 6.6 7.42 5.95 10.02 10.07 1.4 2.2-.27 4.51-2.63 4.95q-3.22.6-6.05-1.14a1 1 0 0 0-1.46.5q-.63 1.66.84 2.38c4.03 1.96 12.16.92 12.55-4.84.51-7.52-12.14-6.56-10.39-12.15q.52-1.66 2.43-2.45m21.42 20.51a11.8 10.86 93.3 0 0 11.522-11.155 11.8 10.86 93.3 0 0-10.163-12.405 11.8 10.86 93.3 0 0-11.521 11.155 11.8 10.86 93.3 0 0 10.163 12.405m-61.981-19.87q1.21-3.39-1.75-2.83a1 1 0 0 0-.82.98v19.89a1 1 0 0 0 1.16.99l.93-.15a1 1 0 0 0 .83-1.07q-.6-7.49.14-12.6.91-6.35 6.92-5.84a1 1 0 0 0 1.03-1.32l-.24-.69a1.01 1 78.8 0 0-1-.67q-4.07.2-6.25 3.58a.34.33 14.2 0 1-.26.15l-.37.01a.32.32 0 0 1-.32-.43m-28.57-2.18a.89.89 0 0 0-.89-.89h-1.22a.89.89 0 0 0-.89.89v20.38a.89.89 0 0 0 .89.89h1.22a.89.89 0 0 0 .89-.89V128.4" vector-effect="non-scaling-stroke"/><path stroke="#80d6f7" d="M93.54 136.73a.37.37 0 0 0-.32.36l.05 46.79a.37.37 0 0 0 .37.37h57.74a.37.37 0 0 0 .37-.37V129.1a.37.37 0 0 0-.42-.36l-57.79 7.99" vector-effect="non-scaling-stroke"/><path stroke="gray" d="m282.34 196.02-.03-35.06a1 1 0 0 0-1.01-1l-5.7.05a1 1 0 0 0-.99 1l-.13 80.99a1 1 0 0 0 1 1.01l5.72-.01a1.01 1-89.7 0 0 1-1l.17-36.82a1 1 0 0 1 1-.99l43.61.09a.8.79 75 0 1 .69.4q.33.59-.06 1.26a1.08 1.06-31.4 0 0-.13.51l.31 35.4a1 1 0 0 0 .97.99l5.45.2a1 1 0 0 0 1.04-1v-81.19a1 .99 88.9 0 0-1.03-1l-5.81.2a1 1 0 0 0-.97 1l.19 34.99a1 1 0 0 1-1 1.01l-43.29-.03a1 1 0 0 1-1-1m356.88 35.25-24.97-70.57a1 .99 80.7 0 0-.92-.67l-6.59-.11a1.01 1.01 0 0 0-.96 1.35l29.59 81.06a.99.98 79.6 0 0 .94.65l6.1-.05a.99.98-79.7 0 0 .92-.64l30.84-80.94a.99.99 0 0 0-.91-1.35l-6.14-.11a1.01 1.01 0 0 0-.96.65q-12.65 33.72-25.02 67.51-.34.94-.57 2.43-.05.36-.12.7-.45 2.29-1.23.09m-222.91-38.8-.09-7.98a1 1 0 0 0-1-.99h-5.47a1 1 0 0 0-1 1v84.85a1 .99 89.7 0 0 1 1l5.51-.02a1 1 0 0 0 .99-1v-33.85q0-2.64 1.46-.45 7.38 11.02 21.81 8.71c27.76-4.43 31.46-54.67 3.99-60.78q-16.01-3.56-25.75 9.97-1.42 1.97-1.45-.46m62.75 23.15a1 1 0 0 1 .99-1.1l41.09-.05a1 .99-87.8 0 0 .99-.92q.98-12.45-4.66-21.76c-8.2-13.56-29.03-11.58-38.29-.77-8.21 9.58-9.5 23.5-5.72 35.55 6.29 20.03 29.05 21.38 44.57 11.84a1.02 1-16.5 0 0 .47-.85v-4.82q0-1.93-1.58-.82-6.59 4.66-14.37 5.48c-15.39 1.63-22.05-7.63-23.49-21.78m63.76-22.56.14-8.53a1 1 0 0 0-.99-1.02l-5.46-.03a1 1 0 0 0-1.01 1v57.4a1 1 0 0 0 .97 1l5.44.15a1.01 1-88.9 0 0 1.03-1q.07-13.53.09-27.04c.01-6.69.76-11.99 3.48-17.46q5.53-11.13 17.19-7.12a1.01 1-81.3 0 0 1.33-.98l-.15-5.33a.99.99 0 0 0-.77-.94c-8.46-2-14.69 1.23-18.75 8.43q-.52.94-1.04 1.87-1.55 2.79-1.5-.4M371.8 233.74q-.03-.23-.04-.47-.05-.93-.24-1.43-8.51-23.87-17.18-47.68a1.02 1.01-9.6 0 0-.94-.66h-6.02a1 1 0 0 0-.93 1.36l22.18 57.31a.98.95 46 0 1 0 .71c-3.14 8.43-7.36 22.52-17.63 20.95q-1.22-.19-2.48-.32a1 1 0 0 0-1.1 1.02l.11 4.94a1 1 0 0 0 .77.95c9.95 2.36 18.3-4.3 21.91-13.23q14.55-36.01 29.02-72.32a1 1 0 0 0-.93-1.37h-5.64a1 .99 10.2 0 0-.93.64l-18.94 49.7q-.69 1.8-.99-.1" vector-effect="non-scaling-stroke"/><path stroke="#80d6f7" d="M151.75 192.27a.51.51 0 0 0-.51-.51l-57.48-.01a.51.51 0 0 0-.51.51v46.12a.51.51 0 0 0 .44.5l57.48 7.87a.51.51 0 0 0 .58-.5v-53.98m6.5 55.22a.33.33 0 0 0 .29.33l75.85 10.42a.33.33 0 0 0 .38-.33l-.03-65.83a.33.33 0 0 0-.33-.33h-75.83a.33.33 0 0 0-.33.33v55.41" vector-effect="non-scaling-stroke"/><path stroke="gray" d="M597.5 206.01a.26.26 0 0 0-.26-.26H566.2a.26.26 0 0 0-.26.26v5.98a.26.26 0 0 0 .26.26h31.04a.26.26 0 0 0 .26-.26v-5.98" vector-effect="non-scaling-stroke"/><path stroke="#80d6f7" d="M244.82 252.43c3.51-1.85-7.18-2.42-2.19-.18a.99.98-78 0 1 .59.92c0 .43-.63 5.5.5 4.89a.25.23 79.5 0 0 .13-.2l.44-4.63a1.02 1.01-11.7 0 1 .53-.8m5.84 3.46q.38.71.47 1.56.14 1.37.93.24l.14-.2a1.01 1-55.1 0 0-.24-1.4c-1.4-.97-2.91-4.7-3.5-4.81a.51.51 0 0 0-.61.54c.04.43-.58 7.3.54 6.25a.62.6 73.8 0 0 .2-.38l.2-1.47q.41-3.07 1.87-.33m4.35-.77q.03.53-.07 1.06-.09.46-.07.99.04 1.29.93.88a.8.8 0 0 0 .47-.79c-.09-1.01.21-6.66-1.48-5.97a1.03.99-89.6 0 0-.54.55l-1.12 2.77q-.65 1.6.54.35l.23-.24q1.02-1.08 1.11.4" vector-effect="non-scaling-stroke"/><path stroke="gray" d="M365.444 147.959a9.3 8.03 90.9 0 0 8.175-9.173 9.3 8.03 90.9 0 0-7.883-9.425 9.3 8.03 90.9 0 0-8.175 9.173 9.3 8.03 90.9 0 0 7.883 9.425m42.128-.001a9.3 8.03 91.1 0 0 8.207-9.144 9.3 8.03 91.1 0 0-7.85-9.452 9.3 8.03 91.1 0 0-8.207 9.144 9.3 8.03 91.1 0 0 7.85 9.452m27.238 40.812c-16.76 1.05-19.64 17.14-18.41 30.81 1.36 15.21 18.65 24.77 30.59 13.14 11.86-11.57 10.8-45.39-12.18-43.95m49.38 6.67q-3.88 4.57-4.67 11.22a1.01 1 3.3 0 0 1 1.12l32.91-.04a1 .99 89.2 0 0 .99-1.03q-.22-7.83-4-12.39c-7.12-8.6-19.57-6.74-26.23 1.12" vector-effect="non-scaling-stroke"/></g><path fill="#fff" d="M0 0h768v384H0V0Zm427.21 126.88c-.72-4.19 0-8.12 5.23-7.32a1 1 0 0 0 1.13-1.2c-.36-1.61-2.66-2.08-4.15-1.62-3.59 1.09-5.07 3.8-5.15 7.37q-.03 1.32-.04 2.65a1 1 0 0 1-1 .99h-1.98a1 1 0 0 0-1 1v.5a1 1 0 0 0 1 1h2a1 1 0 0 1 1 1v17.36a1 1 0 0 0 1.04 1l.93-.03a1 1 0 0 0 .96-1l.01-17.31a1 1 0 0 1 .96-1q1.12-.05 2.24-.02c1.35.03 3.08-.61 1.81-2.25a.98.97 69.7 0 0-.81-.38l-3.17.08a.99.99 0 0 1-1.01-.82Zm-268.96 57.04a.35.35 0 0 0 .35.35l75.8-.03a.35.35 0 0 0 .35-.35v-66.25a.35.35 0 0 0-.4-.35l-75.8 10.44a.35.35 0 0 0-.3.35v55.84Zm158.83-63.78a2.01 2.01 0 0 0-2.01-2.01 2.01 2.01 0 0 0-2.01 2.01 2.01 2.01 0 0 0 2.01 2.01 2.01 2.01 0 0 0 2.01-2.01Zm-26.47 22.92q-4.87-11.29-10.07-22.42c-.74-1.59-1.88-2.27-3.51-1.42a1.02 1.01-14.5 0 0-.53.89v28.6a1 1 0 0 0 1.15.99l.76-.12a.99.99 0 0 0 .85-.99l-.04-20.59q-.01-3.65 1.53-.34l9.87 21.32q.91 1.97 1.82-.01 5.3-11.62 10.92-23.7.12-.26.2-.56c.63-2.36.67.09.63.29-1.44 6.29-.36 15.16-.54 23.52a1.01.99-86.2 0 0 .88 1.02l.86.1a1.01 1-86.9 0 0 1.11-1v-28.66a1 .99-82.4 0 0-.73-.96c-1.7-.49-2.5.29-3.23 1.83q-5.26 11.03-10.09 22.21-.92 2.12-1.84 0Zm146.59-11.81q.09 6.72.31 13.42.18 5.26 5.5 5.38 2.04.05 2.68-1.43a1.01 1.01 0 0 0-.82-1.4q-.39-.03-.79.04c-2.3.4-3.94-.22-4.03-2.94q-.23-7.6.03-13.48a1 1 0 0 1 1.35-.89q3.78 1.43 4.28-1a1 1 0 0 0-.98-1.2H441a1 1 0 0 1-1-1v-4.3a1 1 0 0 0-1.14-.99q-.39.06-.7.26-.56.37-.71 1.43-.24 1.79-.24 3.61a1 .99 88.2 0 1-.93 1l-1.8.12q-1.31.07-1.03 1.42a1 .99 86.4 0 0 .89.8l1.94.16a1.01 1 2.2 0 1 .92.99Zm-100.36-3.56c-14.57-5.11-21.1 17.05-8.51 22.07q4.22 1.67 8.67-.54 1.32-.66 1.05-1.84a1 1 0 0 0-1.36-.7c-10.81 4.46-15.83-8.13-9.87-14.62q4.03-4.4 9.78-1.65a1.01 1.01 0 0 0 1.39-.59q.5-1.55-1.15-2.13Zm27.946 22.763a11.82 10.85 93.9 0 0 11.629-11.055 11.82 10.85 93.9 0 0-10.021-12.53 11.82 10.85 93.9 0 0-11.629 11.054 11.82 10.85 93.9 0 0 10.021 12.53Zm20.844-20.513q2.73-1.14 5.44.42a1 1 0 0 0 1.5-.83l.03-.73a1 1 0 0 0-.63-.96c-4.46-1.77-10.68-.54-11.65 4.78-1.19 6.6 7.42 5.95 10.02 10.07 1.4 2.2-.27 4.51-2.63 4.95q-3.22.6-6.05-1.14a1 1 0 0 0-1.46.5q-.63 1.66.84 2.38c4.03 1.96 12.16.92 12.55-4.84.51-7.52-12.14-6.56-10.39-12.15q.52-1.66 2.43-2.45Zm21.42 20.51a11.8 10.86 93.3 0 0 11.522-11.155 11.8 10.86 93.3 0 0-10.163-12.405 11.8 10.86 93.3 0 0-11.521 11.155 11.8 10.86 93.3 0 0 10.163 12.405Zm-61.98-19.87q1.21-3.39-1.75-2.83a1 1 0 0 0-.82.98v19.89a1 1 0 0 0 1.16.99l.93-.15a1 1 0 0 0 .83-1.07q-.6-7.49.14-12.6.91-6.35 6.92-5.84a1 1 0 0 0 1.03-1.32l-.24-.69a1.01 1 78.8 0 0-1-.67q-4.07.2-6.25 3.58a.34.33 14.2 0 1-.26.15l-.37.01a.32.32 0 0 1-.32-.43Zm-28.57-2.18a.89.89 0 0 0-.89-.89h-1.22a.89.89 0 0 0-.89.89v20.38a.89.89 0 0 0 .89.89h1.22a.89.89 0 0 0 .89-.89V128.4Zm-222.96 8.33a.37.37 0 0 0-.32.36l.05 46.79a.37.37 0 0 0 .37.37h57.74a.37.37 0 0 0 .37-.37V129.1a.37.37 0 0 0-.42-.36l-57.79 7.99Zm188.8 59.29-.03-35.06a1 1 0 0 0-1.01-1l-5.7.05a1 1 0 0 0-.99 1l-.13 80.99a1 1 0 0 0 1 1.01l5.72-.01a1.01 1-89.7 0 0 1-1l.17-36.82a1 1 0 0 1 1-.99l43.61.09a.8.79 75 0 1 .69.4q.33.59-.06 1.26a1.08 1.06-31.4 0 0-.13.51l.31 35.4a1 1 0 0 0 .97.99l5.45.2a1 1 0 0 0 1.04-1v-81.19a1 .99 88.9 0 0-1.03-1l-5.81.2a1 1 0 0 0-.97 1l.19 34.99a1 1 0 0 1-1 1.01l-43.29-.03a1 1 0 0 1-1-1Zm356.88 35.25-24.97-70.57a1 .99 80.7 0 0-.92-.67l-6.59-.11a1.01 1.01 0 0 0-.96 1.35l29.59 81.06a.99.98 79.6 0 0 .94.65l6.1-.05a.99.98-79.7 0 0 .92-.64l30.84-80.94a.99.99 0 0 0-.91-1.35l-6.14-.11a1.01 1.01 0 0 0-.96.65q-12.65 33.72-25.02 67.51-.34.94-.57 2.43-.05.36-.12.7-.45 2.29-1.23.09Zm-222.91-38.8-.09-7.98a1 1 0 0 0-1-.99h-5.47a1 1 0 0 0-1 1v84.85a1 .99 89.7 0 0 1 1l5.51-.02a1 1 0 0 0 .99-1v-33.85q0-2.64 1.46-.45 7.38 11.02 21.81 8.71c27.76-4.43 31.46-54.67 3.99-60.78q-16.01-3.56-25.75 9.97-1.42 1.97-1.45-.46Zm62.75 23.15a1 1 0 0 1 .99-1.1l41.09-.05a1 .99-87.8 0 0 .99-.92q.98-12.45-4.66-21.76c-8.2-13.56-29.03-11.58-38.29-.77-8.21 9.58-9.5 23.5-5.72 35.55 6.29 20.03 29.05 21.38 44.57 11.84a1.02 1-16.5 0 0 .47-.85v-4.82q0-1.93-1.58-.82-6.59 4.66-14.37 5.48c-15.39 1.63-22.05-7.63-23.49-21.78Zm63.76-22.56.14-8.53a1 1 0 0 0-.99-1.02l-5.46-.03a1 1 0 0 0-1.01 1v57.4a1 1 0 0 0 .97 1l5.44.15a1.01 1-88.9 0 0 1.03-1q.07-13.53.09-27.04c.01-6.69.76-11.99 3.48-17.46q5.53-11.13 17.19-7.12a1.01 1-81.3 0 0 1.33-.98l-.15-5.33a.99.99 0 0 0-.77-.94c-8.46-2-14.69 1.23-18.75 8.43q-.52.94-1.04 1.87-1.55 2.79-1.5-.4ZM371.8 233.74q-.03-.23-.04-.47-.05-.93-.24-1.43-8.51-23.87-17.18-47.68a1.02 1.01-9.6 0 0-.94-.66h-6.02a1 1 0 0 0-.93 1.36l22.18 57.31a.98.95 46 0 1 0 .71c-3.14 8.43-7.36 22.52-17.63 20.95q-1.22-.19-2.48-.32a1 1 0 0 0-1.1 1.02l.11 4.94a1 1 0 0 0 .77.95c9.95 2.36 18.3-4.3 21.91-13.23q14.55-36.01 29.02-72.32a1 1 0 0 0-.93-1.37h-5.64a1 .99 10.2 0 0-.93.64l-18.94 49.7q-.69 1.8-.99-.1Zm-220.05-41.47a.51.51 0 0 0-.51-.51l-57.48-.01a.51.51 0 0 0-.51.51v46.12a.51.51 0 0 0 .44.5l57.48 7.87a.51.51 0 0 0 .58-.5v-53.98Zm6.5 55.22a.33.33 0 0 0 .29.33l75.85 10.42a.33.33 0 0 0 .38-.33l-.03-65.83a.33.33 0 0 0-.33-.33h-75.83a.33.33 0 0 0-.33.33v55.41Zm439.25-41.48a.26.26 0 0 0-.26-.26H566.2a.26.26 0 0 0-.26.26v5.98a.26.26 0 0 0 .26.26h31.04a.26.26 0 0 0 .26-.26v-5.98Zm-352.68 46.42c3.51-1.85-7.18-2.42-2.19-.18a.99.98-78 0 1 .59.92c0 .43-.63 5.5.5 4.89a.25.23 79.5 0 0 .13-.2l.44-4.63a1.02 1.01-11.7 0 1 .53-.8Zm5.84 3.46q.38.71.47 1.56.14 1.37.93.24l.14-.2a1.01 1-55.1 0 0-.24-1.4c-1.4-.97-2.91-4.7-3.5-4.81a.51.51 0 0 0-.61.54c.04.43-.58 7.3.54 6.25a.62.6 73.8 0 0 .2-.38l.2-1.47q.41-3.07 1.87-.33Zm4.35-.77q.03.53-.07 1.06-.09.46-.07.99.04 1.29.93.88a.8.8 0 0 0 .47-.79c-.09-1.01.21-6.66-1.48-5.97a1.03.99-89.6 0 0-.54.55l-1.12 2.77q-.65 1.6.54.35l.23-.24q1.02-1.08 1.11.4Z"/><path d="m428.22 127.7 3.17-.08a.98.97 69.7 0 1 .81.38c1.27 1.64-.46 2.28-1.81 2.25q-1.12-.03-2.24.02a1 1 0 0 0-.96 1l-.01 17.31a1 1 0 0 1-.96 1l-.93.03a1 1 0 0 1-1.04-1v-17.36a1 1 0 0 0-1-1h-2a1 1 0 0 1-1-1v-.5a1 1 0 0 1 1-1h1.98a1 1 0 0 0 1-.99q.01-1.33.04-2.65c.08-3.57 1.56-6.28 5.15-7.37 1.49-.46 3.79.01 4.15 1.62a1 1 0 0 1-1.13 1.2c-5.23-.8-5.95 3.13-5.23 7.32a.99.99 0 0 0 1.01.82Z"/><path fill="#00acee" d="M158.25 183.92v-55.84a.35.35 0 0 1 .3-.35l75.8-10.44a.35.35 0 0 1 .4.35v66.25a.35.35 0 0 1-.35.35l-75.8.03a.35.35 0 0 1-.35-.35Z"/><circle cx="315.07" cy="120.14" r="2.01"/><path d="M290.61 143.06q.92 2.12 1.84 0 4.83-11.18 10.09-22.21c.73-1.54 1.53-2.32 3.23-1.83a1 .99-82.4 0 1 .73.96v28.66a1.01 1-86.9 0 1-1.11 1l-.86-.1a1.01.99-86.2 0 1-.88-1.02c.18-8.36-.9-17.23.54-23.52.04-.2 0-2.65-.63-.29q-.08.3-.2.56-5.62 12.08-10.92 23.7-.91 1.98-1.82.01l-9.87-21.32q-1.54-3.31-1.53.34l.04 20.59a.99.99 0 0 1-.85.99l-.76.12a1 1 0 0 1-1.15-.99v-28.6a1.02 1.01-14.5 0 1 .53-.89c1.63-.85 2.77-.17 3.51 1.42q5.2 11.13 10.07 22.42Zm145.67-12.8-1.94-.16a1 .99 86.4 0 1-.89-.8q-.28-1.35 1.03-1.42l1.8-.12a1 .99 88.2 0 0 .93-1q0-1.82.24-3.61.15-1.06.71-1.43.31-.2.7-.26a1 1 0 0 1 1.14.99v4.3a1 1 0 0 0 1 1h3.73a1 1 0 0 1 .98 1.2q-.5 2.43-4.28 1a1 1 0 0 0-1.35.89q-.26 5.88-.03 13.48c.09 2.72 1.73 3.34 4.03 2.94q.4-.07.79-.04a1.01 1.01 0 0 1 .82 1.4q-.64 1.48-2.68 1.43-5.32-.12-5.5-5.38-.22-6.7-.31-13.42a1.01 1 2.2 0 0-.92-.99Zm-107.95 19.5c-12.59-5.02-6.06-27.18 8.51-22.07q1.65.58 1.15 2.13a1.01 1.01 0 0 1-1.39.59q-5.75-2.75-9.78 1.65c-5.96 6.49-.94 19.08 9.87 14.62a1 1 0 0 1 1.36.7q.27 1.18-1.05 1.84-4.45 2.21-8.67.54Zm36.456.693a11.82 10.85 93.9 0 1-10.02-12.531 11.82 10.85 93.9 0 1 11.628-11.055 11.82 10.85 93.9 0 1 10.02 12.531 11.82 10.85 93.9 0 1-11.628 11.055Zm.658-2.494a9.3 8.03 90.9 0 0 8.175-9.173 9.3 8.03 90.9 0 0-7.883-9.425 9.3 8.03 90.9 0 0-8.175 9.173 9.3 8.03 90.9 0 0 7.883 9.425Z"/><path d="M383.2 132.39c-1.75 5.59 10.9 4.63 10.39 12.15-.39 5.76-8.52 6.8-12.55 4.84q-1.47-.72-.84-2.38a1 1 0 0 1 1.46-.5q2.83 1.74 6.05 1.14c2.36-.44 4.03-2.75 2.63-4.95-2.6-4.12-11.21-3.47-10.02-10.07.97-5.32 7.19-6.55 11.65-4.78a1 1 0 0 1 .63.96l-.03.73a1 1 0 0 1-1.5.83q-2.71-1.56-5.44-.42-1.91.79-2.43 2.45Z"/><path d="M407.05 150.45a11.8 10.86 93.3 0 1-10.162-12.405 11.8 10.86 93.3 0 1 11.521-11.155 11.8 10.86 93.3 0 1 10.163 12.405 11.8 10.86 93.3 0 1-11.521 11.155Zm.522-2.492a9.3 8.03 91.1 0 0 8.207-9.144 9.3 8.03 91.1 0 0-7.85-9.452 9.3 8.03 91.1 0 0-8.207 9.144 9.3 8.03 91.1 0 0 7.85 9.452ZM345.39 131.01l.37-.01a.34.33 14.2 0 0 .26-.15q2.18-3.38 6.25-3.58a1.01 1 78.8 0 1 1 .67l.24.69a1 1 0 0 1-1.03 1.32q-6.01-.51-6.92 5.84-.74 5.11-.14 12.6a1 1 0 0 1-.83 1.07l-.93.15a1 1 0 0 1-1.16-.99v-19.89a1 1 0 0 1 .82-.98q2.96-.56 1.75 2.83a.32.32 0 0 0 .32.43Z"/><rect width="3" height="22.16" x="313.5" y="127.51" rx=".89"/><path fill="#00acee" d="m93.54 136.73 57.79-7.99a.37.37 0 0 1 .42.36v54.78a.37.37 0 0 1-.37.37H93.64a.37.37 0 0 1-.37-.37l-.05-46.79a.37.37 0 0 1 .32-.36Z"/><ellipse fill="#fff" rx="9.3" ry="8.03" transform="rotate(90.9 114.546 249.276)"/><ellipse fill="#fff" rx="9.3" ry="8.03" transform="rotate(91.1 135.863 269.328)"/><path d="m283.34 197.02 43.29.03a1 1 0 0 0 1-1.01l-.19-34.99a1 1 0 0 1 .97-1l5.81-.2a1 .99 88.9 0 1 1.03 1v81.19a1 1 0 0 1-1.04 1l-5.45-.2a1 1 0 0 1-.97-.99l-.31-35.4a1.08 1.06-31.4 0 1 .13-.51q.39-.67.06-1.26a.8.79 75 0 0-.69-.4l-43.61-.09a1 1 0 0 0-1 .99L282.2 242a1.01 1-89.7 0 1-1 1l-5.72.01a1 1 0 0 1-1-1.01l.13-80.99a1 1 0 0 1 .99-1l5.7-.05a1 1 0 0 1 1.01 1l.03 35.06a1 1 0 0 0 1 1Zm357.11 34.16q.07-.34.12-.7.23-1.49.57-2.43 12.37-33.79 25.02-67.51a1.01 1.01 0 0 1 .96-.65l6.14.11a.99.99 0 0 1 .91 1.35l-30.84 80.94a.99.98-79.7 0 1-.92.64l-6.1.05a.99.98 79.6 0 1-.94-.65l-29.59-81.06a1.01 1.01 0 0 1 .96-1.35l6.59.11a1 .99 80.7 0 1 .92.67l24.97 70.57q.78 2.2 1.23-.09Zm-222.69-38.25q9.74-13.53 25.75-9.97c27.47 6.11 23.77 56.35-3.99 60.78q-14.43 2.31-21.81-8.71-1.46-2.19-1.46.45v33.85a1 1 0 0 1-.99 1l-5.51.02a1 .99 89.7 0 1-1-1V184.5a1 1 0 0 1 1-1h5.47a1 1 0 0 1 1 .99l.09 7.98q.03 2.43 1.45.46Zm17.05-4.16c-16.76 1.05-19.64 17.14-18.41 30.81 1.36 15.21 18.65 24.77 30.59 13.14 11.86-11.57 10.8-45.39-12.18-43.95Zm44.25 26.85c1.44 14.15 8.1 23.41 23.49 21.78q7.78-.82 14.37-5.48 1.58-1.11 1.58.82v4.82a1.02 1-16.5 0 1-.47.85c-15.52 9.54-38.28 8.19-44.57-11.84-3.78-12.05-2.49-25.97 5.72-35.55 9.26-10.81 30.09-12.79 38.29.77q5.64 9.31 4.66 21.76a1 .99-87.8 0 1-.99.92l-41.09.05a1 1 0 0 0-.99 1.1Zm5.13-20.18q-3.88 4.57-4.67 11.22a1.01 1 3.3 0 0 1 1.12l32.91-.04a1 .99 89.2 0 0 .99-1.03q-.22-7.83-4-12.39c-7.12-8.6-19.57-6.74-26.23 1.12Zm60.13-1.98q.52-.93 1.04-1.87c4.06-7.2 10.29-10.43 18.75-8.43a.99.99 0 0 1 .77.94l.15 5.33a1.01 1-81.3 0 1-1.33.98q-11.66-4.01-17.19 7.12c-2.72 5.47-3.47 10.77-3.48 17.46q-.02 13.51-.09 27.04a1.01 1-88.9 0 1-1.03 1l-5.44-.15a1 1 0 0 1-.97-1v-57.4a1 1 0 0 1 1.01-1l5.46.03a1 1 0 0 1 .99 1.02l-.14 8.53q-.05 3.19 1.5.4ZM371.8 233.74q.3 1.9.99.1l18.94-49.7a1 .99 10.2 0 1 .93-.64h5.64a1 1 0 0 1 .93 1.37q-14.47 36.31-29.02 72.32c-3.61 8.93-11.96 15.59-21.91 13.23a1 1 0 0 1-.77-.95l-.11-4.94a1 1 0 0 1 1.1-1.02q1.26.13 2.48.32c10.27 1.57 14.49-12.52 17.63-20.95a.98.95 46 0 0 0-.71l-22.18-57.31a1 1 0 0 1 .93-1.36h6.02a1.02 1.01-9.6 0 1 .94.66q8.67 23.81 17.18 47.68.19.5.24 1.43.01.24.04.47Z"/><path fill="#fff" d="M416.4 219.58c-1.23-13.67 1.65-29.76 18.41-30.81 22.98-1.44 24.04 32.38 12.18 43.95-11.94 11.63-29.23 2.07-30.59-13.14Zm67.79-24.14c6.66-7.86 19.11-9.72 26.23-1.12q3.78 4.56 4 12.39a1 .99 89.2 0 1-.99 1.03l-32.91.04a1.01 1 3.3 0 1-1-1.12q.79-6.65 4.67-11.22Z"/><path fill="#00acee" d="M151.75 192.27v53.98a.51.51 0 0 1-.58.5l-57.48-7.87a.51.51 0 0 1-.44-.5v-46.12a.51.51 0 0 1 .51-.51l57.48.01a.51.51 0 0 1 .51.51Zm6.5 55.22v-55.41a.33.33 0 0 1 .33-.33h75.83a.33.33 0 0 1 .33.33l.03 65.83a.33.33 0 0 1-.38.33l-75.85-10.42a.33.33 0 0 1-.29-.33Z"/><rect width="31.56" height="6.5" x="565.94" y="205.75" rx=".26"/><path fill="#00acee" d="m244.29 253.23-.44 4.63a.25.23 79.5 0 1-.13.2c-1.13.61-.5-4.46-.5-4.89a.99.98-78 0 0-.59-.92c-4.99-2.24 5.7-1.67 2.19.18a1.02 1.01-11.7 0 0-.53.8Zm4.5 2.99-.2 1.47a.62.6 73.8 0 1-.2.38c-1.12 1.05-.5-5.82-.54-6.25a.51.51 0 0 1 .61-.54c.59.11 2.1 3.84 3.5 4.81a1.01 1-55.1 0 1 .24 1.4l-.14.2q-.79 1.13-.93-.24-.09-.85-.47-1.56-1.46-2.74-1.87.33Zm5.11-1.5-.23.24q-1.19 1.25-.54-.35l1.12-2.77a1.03.99-89.6 0 1 .54-.55c1.69-.69 1.39 4.96 1.48 5.97a.8.8 0 0 1-.47.79q-.89.41-.93-.88-.02-.53.07-.99.1-.53.07-1.06-.09-1.48-1.11-.4Z"/></svg>