<svg width="228" height="114" viewBox="0 0 228 114" fill="none" xmlns="http://www.w3.org/2000/svg">
<path d="M83.8198 58.1934L83.8109 47.785C83.8109 47.7457 83.8031 47.7069 83.788 47.6707C83.7729 47.6345 83.7508 47.6016 83.7229 47.574C83.695 47.5464 83.6619 47.5246 83.6255 47.5098C83.5892 47.4951 83.5503 47.4877 83.511 47.4881L81.8188 47.5029C81.7406 47.5037 81.6659 47.5353 81.6108 47.5909C81.5558 47.6465 81.5249 47.7216 81.5249 47.7998L81.4863 71.8437C81.486 71.883 81.4933 71.9219 81.5081 71.9582C81.5228 71.9946 81.5446 72.0277 81.5722 72.0556C81.5998 72.0834 81.6327 72.1056 81.6689 72.1207C81.7051 72.1358 81.744 72.1436 81.7832 72.1436L83.4813 72.1406C83.5596 72.1406 83.6346 72.1094 83.6902 72.0538C83.7458 71.9982 83.7774 71.9227 83.7782 71.8437L83.8287 60.9128C83.8295 60.8346 83.8611 60.7598 83.9167 60.7048C83.9723 60.6497 84.0473 60.6189 84.1256 60.6189L97.0723 60.6456C97.1136 60.6455 97.1543 60.6564 97.1903 60.6772C97.2263 60.6981 97.2562 60.7281 97.2771 60.7643C97.3424 60.8811 97.3365 61.0058 97.2593 61.1384C97.234 61.1851 97.2207 61.2372 97.2207 61.2898L97.3127 71.7992C97.3135 71.8759 97.3439 71.9493 97.3976 72.0041C97.4512 72.0589 97.524 72.0908 97.6007 72.0931L99.2187 72.1525C99.2587 72.1541 99.2985 72.1476 99.3359 72.1334C99.3733 72.1192 99.4075 72.0976 99.4363 72.0698C99.4652 72.0421 99.4881 72.0088 99.5037 71.972C99.5194 71.9352 99.5275 71.8956 99.5274 71.8556V47.7523C99.5274 47.7123 99.5195 47.6727 99.5039 47.6359C99.4884 47.5991 99.4657 47.5658 99.4371 47.5381C99.4086 47.5103 99.3748 47.4887 99.3377 47.4745C99.3007 47.4603 99.2612 47.4538 99.2217 47.4554L97.4968 47.5148C97.4196 47.5171 97.3464 47.5494 97.2926 47.6048C97.2389 47.6603 97.2088 47.7345 97.2088 47.8117L97.2652 58.1993C97.2656 58.2386 97.2582 58.2775 97.2435 58.3139C97.2288 58.3502 97.207 58.3833 97.1793 58.4112C97.1517 58.4391 97.1189 58.4612 97.0827 58.4763C97.0465 58.4914 97.0076 58.4992 96.9684 58.4992L84.1167 58.4903C84.0379 58.4903 83.9624 58.459 83.9067 58.4033C83.8511 58.3477 83.8198 58.2721 83.8198 58.1934ZM189.769 68.6582L182.356 47.7078C182.336 47.6505 182.299 47.6007 182.25 47.5651C182.201 47.5295 182.143 47.5099 182.082 47.5089L180.126 47.4762C180.078 47.4758 180.03 47.487 179.987 47.509C179.944 47.5309 179.907 47.5629 179.879 47.6023C179.851 47.6416 179.833 47.6872 179.826 47.735C179.82 47.7828 179.825 47.8315 179.841 47.877L188.626 71.9417C188.647 71.9991 188.685 72.0485 188.735 72.0831C188.785 72.1177 188.844 72.1357 188.905 72.1347L190.716 72.1198C190.775 72.1198 190.833 72.1017 190.881 72.0677C190.93 72.0338 190.968 71.9857 190.989 71.9298L200.144 47.9008C200.162 47.8565 200.168 47.8087 200.163 47.7615C200.157 47.7142 200.141 47.669 200.114 47.6296C200.088 47.5902 200.052 47.5578 200.01 47.5352C199.968 47.5127 199.922 47.5006 199.874 47.5L198.051 47.4673C197.99 47.4663 197.929 47.4843 197.878 47.5188C197.827 47.5534 197.788 47.6027 197.766 47.6603C195.263 54.334 192.787 61.0147 190.339 67.7023C190.271 67.8884 190.215 68.1288 190.169 68.4237C190.159 68.495 190.148 68.5642 190.134 68.6315C190.045 69.0848 189.923 69.0937 189.769 68.6582ZM123.592 57.1395L123.565 54.7704C123.565 54.6922 123.533 54.6175 123.477 54.5624C123.422 54.5074 123.347 54.4765 123.269 54.4765H121.645C121.566 54.4765 121.49 54.5078 121.435 54.5635C121.379 54.6192 121.348 54.6947 121.348 54.7734V79.9633C121.348 80.0025 121.355 80.0413 121.37 80.0776C121.385 80.1138 121.407 80.1466 121.435 80.1742C121.462 80.2018 121.495 80.2236 121.531 80.2384C121.567 80.2531 121.606 80.2605 121.645 80.2601L123.28 80.2542C123.359 80.2534 123.433 80.2218 123.488 80.1662C123.543 80.1106 123.574 80.0355 123.574 79.9573V69.9081C123.574 69.3856 123.719 69.3411 124.008 69.7745C125.468 71.9555 127.627 72.8175 130.483 72.3603C138.724 71.0451 139.822 56.1301 131.667 54.3162C128.498 53.6116 125.95 54.5982 124.023 57.2761C123.742 57.666 123.598 57.6204 123.592 57.1395ZM142.221 64.0122C142.217 63.971 142.221 63.9294 142.234 63.8901C142.247 63.8508 142.268 63.8146 142.296 63.7839C142.323 63.7531 142.357 63.7285 142.395 63.7116C142.433 63.6946 142.474 63.6858 142.515 63.6856L154.714 63.6707C154.788 63.6709 154.859 63.6429 154.913 63.5923C154.968 63.5416 155.001 63.4721 155.007 63.3976C155.201 60.9336 154.74 58.7802 153.624 56.9376C151.19 52.912 145.006 53.4998 142.257 56.709C139.819 59.5531 139.436 63.6856 140.559 67.2629C142.426 73.2093 149.183 73.6101 153.79 70.7779C153.833 70.7506 153.868 70.7131 153.893 70.669C153.917 70.6249 153.93 70.5756 153.93 70.5256V69.0947C153.93 68.7127 153.773 68.6315 153.461 68.8512C152.156 69.7735 150.734 70.3158 149.195 70.4781C144.626 70.962 142.649 68.2129 142.221 64.0122ZM161.15 57.3147L161.191 54.7823C161.192 54.7431 161.185 54.7041 161.171 54.6676C161.156 54.6311 161.135 54.5978 161.108 54.5696C161.08 54.5414 161.048 54.519 161.012 54.5035C160.975 54.488 160.937 54.4799 160.897 54.4795L159.276 54.4706C159.237 54.4702 159.198 54.4776 159.162 54.4923C159.126 54.5071 159.093 54.5289 159.065 54.5565C159.037 54.5841 159.015 54.617 159 54.6532C158.984 54.6894 158.977 54.7282 158.977 54.7675V71.8081C158.977 71.8853 159.007 71.9595 159.06 72.0149C159.114 72.0704 159.187 72.1027 159.265 72.105L160.88 72.1495C160.919 72.1507 160.958 72.1439 160.995 72.1295C161.032 72.1152 161.066 72.0936 161.094 72.0659C161.123 72.0383 161.145 72.0052 161.161 71.9685C161.177 71.9319 161.185 71.8925 161.185 71.8526C161.199 69.1748 161.208 66.499 161.212 63.8251C161.215 61.839 161.438 60.2656 162.245 58.6417C163.34 56.4389 165.041 55.7343 167.349 56.5279C167.394 56.5438 167.442 56.5483 167.49 56.5411C167.537 56.5339 167.582 56.5152 167.621 56.4866C167.66 56.458 167.691 56.4204 167.713 56.3769C167.734 56.3334 167.744 56.2854 167.743 56.237L167.699 54.6547C167.697 54.5894 167.674 54.5265 167.632 54.4759C167.591 54.4254 167.534 54.3901 167.47 54.3756C164.959 53.7818 163.109 54.7407 161.904 56.8782C161.801 57.0643 161.698 57.2493 161.595 57.4334C161.288 57.9856 161.14 57.946 161.15 57.3147ZM110.378 69.3915C110.372 69.346 110.368 69.2995 110.366 69.252C110.356 69.0679 110.333 68.9264 110.295 68.8275C108.611 64.1032 106.911 59.3849 105.195 54.6725C105.174 54.6156 105.136 54.5665 105.086 54.5315C105.036 54.4966 104.977 54.4774 104.916 54.4765H103.129C103.08 54.4767 103.033 54.4885 102.99 54.511C102.948 54.5336 102.912 54.5661 102.884 54.6058C102.857 54.6456 102.84 54.6913 102.835 54.7391C102.829 54.7869 102.835 54.8354 102.852 54.8803L109.437 71.8942C109.464 71.9627 109.464 72.0381 109.437 72.105C108.505 74.6076 107.252 78.7906 104.203 78.3245C103.962 78.2869 103.716 78.2552 103.467 78.2295C103.425 78.2253 103.383 78.23 103.343 78.2434C103.303 78.2568 103.266 78.2785 103.235 78.3072C103.204 78.3358 103.18 78.3707 103.164 78.4095C103.147 78.4483 103.139 78.4902 103.14 78.5323L103.173 79.9989C103.175 80.0646 103.198 80.1279 103.239 80.1789C103.281 80.2299 103.338 80.2658 103.402 80.2809C106.356 80.9815 108.834 79.0043 109.906 76.3532C112.786 69.2263 115.658 62.0696 118.521 54.8832C118.539 54.8382 118.546 54.7894 118.541 54.7412C118.536 54.693 118.519 54.6468 118.491 54.6067C118.464 54.5665 118.427 54.5337 118.385 54.511C118.342 54.4883 118.294 54.4765 118.245 54.4765H116.571C116.511 54.4767 116.452 54.495 116.403 54.5289C116.354 54.5628 116.316 54.6108 116.295 54.6665L110.672 69.4212C110.536 69.7775 110.438 69.7676 110.378 69.3915Z" stroke="#808080" stroke-width="2"/>
<path d="M177.383 61.1592C177.383 61.1387 177.375 61.1191 177.36 61.1046C177.346 61.0902 177.326 61.082 177.306 61.082H168.091C168.07 61.082 168.051 61.0902 168.036 61.1046C168.022 61.1191 168.014 61.1387 168.014 61.1592V62.9345C168.014 62.955 168.022 62.9746 168.036 62.9891C168.051 63.0036 168.07 63.0117 168.091 63.0117H177.306C177.326 63.0117 177.346 63.0036 177.36 62.9891C177.375 62.9746 177.383 62.955 177.383 62.9345V61.1592Z" stroke="#808080" stroke-width="2"/>
<path d="M126.813 37.9321L127.754 37.9084C127.8 37.9065 127.846 37.9158 127.887 37.9354C127.929 37.9551 127.966 37.9845 127.994 38.0212C128.371 38.5081 127.858 38.6981 127.457 38.6892C127.235 38.6832 127.014 38.6852 126.792 38.6951C126.715 38.6982 126.643 38.7308 126.59 38.7862C126.537 38.8415 126.507 38.9153 126.507 38.992L126.504 44.1309C126.504 44.2076 126.474 44.2814 126.421 44.3367C126.368 44.3921 126.296 44.4247 126.219 44.4278L125.943 44.4367C125.903 44.4383 125.863 44.4318 125.826 44.4176C125.788 44.4034 125.754 44.3818 125.725 44.354C125.696 44.3263 125.673 44.293 125.658 44.2562C125.642 44.2194 125.634 44.1798 125.634 44.1398V38.986C125.634 38.9073 125.603 38.8318 125.547 38.7761C125.492 38.7204 125.416 38.6892 125.337 38.6892H124.744C124.665 38.6892 124.589 38.6579 124.534 38.6022C124.478 38.5465 124.447 38.471 124.447 38.3923V38.2439C124.447 38.1651 124.478 38.0896 124.534 38.0339C124.589 37.9783 124.665 37.947 124.744 37.947H125.331C125.41 37.947 125.485 37.9161 125.54 37.8611C125.596 37.806 125.627 37.7313 125.628 37.6531C125.63 37.3898 125.634 37.1276 125.64 36.8664C125.664 35.8065 126.103 35.002 127.169 34.6784C127.611 34.5418 128.294 34.6814 128.401 35.1593C128.411 35.2064 128.41 35.2553 128.397 35.3017C128.384 35.3481 128.36 35.3906 128.327 35.4257C128.294 35.4608 128.253 35.4873 128.207 35.5029C128.162 35.5186 128.113 35.5229 128.066 35.5156C126.513 35.2781 126.299 36.4448 126.513 37.6887C126.525 37.7587 126.562 37.8218 126.617 37.8666C126.672 37.9113 126.742 37.9346 126.813 37.9321Z" fill="white"/>
<path d="M46.9805 54.6013V38.0238C46.9802 37.9986 46.9891 37.9742 47.0055 37.9551C47.0219 37.936 47.0446 37.9235 47.0695 37.9199L69.5727 34.8205C69.5875 34.8184 69.6026 34.8195 69.617 34.8237C69.6314 34.828 69.6447 34.8353 69.6559 34.8452C69.6672 34.855 69.6762 34.8672 69.6824 34.8809C69.6885 34.8946 69.6916 34.9094 69.6914 34.9244V54.5924C69.6914 54.62 69.6805 54.6464 69.661 54.6659C69.6415 54.6854 69.6151 54.6963 69.5875 54.6963L47.0844 54.7052C47.0568 54.7052 47.0304 54.6943 47.0109 54.6748C46.9914 54.6553 46.9805 54.6289 46.9805 54.6013Z" fill="white"/>
<path d="M93.5364 36.2633C93.866 36.2633 94.1331 35.9961 94.1331 35.6665C94.1331 35.337 93.866 35.0698 93.5364 35.0698C93.2069 35.0698 92.9397 35.337 92.9397 35.6665C92.9397 35.9961 93.2069 36.2633 93.5364 36.2633Z" fill="white"/>
<path d="M86.2748 42.4709C86.4569 42.8905 86.639 42.8905 86.8211 42.4709C87.777 40.2582 88.7755 38.0603 89.8166 35.8773C90.0333 35.4201 90.2708 35.1886 90.7755 35.334C90.8376 35.3509 90.8924 35.388 90.9316 35.4395C90.9707 35.491 90.992 35.554 90.9922 35.619V44.1275C90.992 44.1695 90.983 44.211 90.9659 44.2493C90.9488 44.2877 90.9239 44.3219 90.8928 44.3499C90.8617 44.3779 90.8252 44.399 90.7855 44.4118C90.7459 44.4247 90.704 44.4289 90.6627 44.4243L90.4073 44.3946C90.3346 44.3865 90.2674 44.351 90.2191 44.295C90.1708 44.239 90.1447 44.1665 90.1461 44.0918C90.1995 41.61 89.8789 38.9767 90.3064 37.1093C90.3183 37.05 90.3064 36.3226 90.1194 37.0232C90.1035 37.0826 90.0837 37.138 90.06 37.1895C88.9477 39.5803 87.8671 41.9256 86.8181 44.2254C86.638 44.6173 86.4579 44.6183 86.2778 44.2284L83.3477 37.899C83.0429 37.2439 82.8915 37.2776 82.8934 38L82.9053 44.1126C82.906 44.1839 82.8808 44.253 82.8344 44.307C82.788 44.3611 82.7235 44.3965 82.653 44.4065L82.4273 44.4421C82.385 44.4486 82.3419 44.4458 82.3007 44.4339C82.2596 44.4221 82.2216 44.4015 82.1891 44.3736C82.1567 44.3457 82.1307 44.3111 82.1129 44.2722C82.0951 44.2333 82.0859 44.191 82.0859 44.1482V35.6576C82.0859 35.6037 82.1005 35.5508 82.1282 35.5043C82.1558 35.4578 82.1956 35.4195 82.2433 35.3934C82.7272 35.1411 83.0656 35.3429 83.2853 35.815C84.3145 38.0178 85.311 40.2364 86.2748 42.4709ZM129.521 38.6709L128.945 38.6234C128.881 38.6181 128.821 38.592 128.773 38.5492C128.726 38.5064 128.693 38.449 128.68 38.3859C128.625 38.1187 128.727 37.9782 128.986 37.9643L129.521 37.9287C129.595 37.9242 129.666 37.8909 129.717 37.8357C129.768 37.7805 129.797 37.7076 129.797 37.6318C129.797 37.2716 129.82 36.9144 129.868 36.5601C129.898 36.3503 129.968 36.2088 130.079 36.1356C130.14 36.096 130.209 36.0703 130.287 36.0584C130.329 36.0525 130.372 36.0556 130.412 36.0676C130.453 36.0797 130.491 36.1003 130.523 36.1282C130.555 36.1561 130.581 36.1905 130.598 36.2292C130.616 36.2678 130.625 36.3098 130.625 36.3523V37.6289C130.625 37.7076 130.656 37.7831 130.712 37.8388C130.768 37.8945 130.843 37.9257 130.922 37.9257H132.029C132.073 37.9257 132.117 37.9355 132.157 37.9544C132.196 37.9733 132.231 38.0007 132.259 38.0348C132.287 38.0689 132.307 38.1088 132.318 38.1516C132.328 38.1943 132.329 38.2389 132.32 38.282C132.221 38.7629 131.798 38.8619 131.05 38.5789C131.006 38.5624 130.959 38.5566 130.912 38.5618C130.866 38.5671 130.821 38.5832 130.782 38.609C130.743 38.6347 130.71 38.6694 130.687 38.7101C130.664 38.7508 130.651 38.7963 130.649 38.8431C130.597 40.0068 130.594 41.3408 130.64 42.845C130.667 43.6525 131.153 43.8365 131.836 43.7178C131.915 43.7039 131.994 43.7 132.071 43.7059C132.117 43.711 132.162 43.7269 132.201 43.7523C132.241 43.7777 132.273 43.812 132.297 43.8524C132.321 43.8928 132.335 43.9382 132.338 43.985C132.341 44.0317 132.333 44.0785 132.314 44.1215C132.188 44.4144 131.922 44.556 131.519 44.5461C130.466 44.5223 129.921 43.9899 129.886 42.9489C129.842 41.6228 129.812 40.2948 129.794 38.9648C129.793 38.891 129.765 38.82 129.714 38.7657C129.664 38.7113 129.595 38.6775 129.521 38.6709ZM97.473 44.46C93.7353 42.9696 95.6739 36.3909 99.9994 37.9079C100.326 38.0227 100.44 38.2335 100.341 38.5403C100.327 38.5804 100.305 38.6172 100.277 38.6483C100.248 38.6794 100.213 38.704 100.174 38.7205C100.135 38.7371 100.093 38.7452 100.05 38.7443C100.008 38.7434 99.9664 38.7336 99.9281 38.7154C98.7901 38.1712 97.8223 38.3344 97.0247 39.2053C95.2553 41.132 96.7456 44.8696 99.9548 43.5456C99.9948 43.5289 100.038 43.5212 100.081 43.5229C100.124 43.5247 100.167 43.5358 100.205 43.5556C100.244 43.5754 100.277 43.6033 100.304 43.6375C100.33 43.6717 100.349 43.7112 100.359 43.7534C100.412 43.9869 100.308 44.169 100.047 44.2997C99.1661 44.737 98.3082 44.7905 97.473 44.46ZM108.296 44.6657C107.444 44.6075 106.651 44.1829 106.094 43.4852C105.536 42.7876 105.258 41.874 105.321 40.9456C105.384 40.0171 105.784 39.1497 106.431 38.5342C107.078 37.9187 107.921 37.6056 108.773 37.6636C109.626 37.7218 110.418 38.1464 110.976 38.8441C111.533 39.5417 111.811 40.4553 111.748 41.3837C111.685 42.3122 111.285 43.1796 110.638 43.7951C109.991 44.4106 109.148 44.7237 108.296 44.6657ZM108.491 43.9253C108.804 43.9302 109.115 43.8637 109.407 43.7295C109.698 43.5953 109.964 43.396 110.189 43.1432C110.415 42.8903 110.595 42.5887 110.72 42.2557C110.845 41.9226 110.912 41.5646 110.918 41.2021C110.924 40.8395 110.868 40.4796 110.753 40.1428C110.639 39.806 110.468 39.4989 110.251 39.239C110.033 38.9792 109.774 38.7717 109.487 38.6285C109.2 38.4852 108.891 38.4089 108.578 38.404C108.265 38.3991 107.954 38.4656 107.662 38.5998C107.371 38.734 107.105 38.9333 106.88 39.1861C106.654 39.439 106.474 39.7406 106.349 40.0736C106.224 40.4067 106.157 40.7647 106.151 41.1272C106.145 41.4898 106.201 41.8497 106.316 42.1865C106.43 42.5234 106.601 42.8304 106.818 43.0903C107.036 43.3501 107.295 43.5576 107.582 43.7008C107.869 43.8441 108.178 43.9204 108.491 43.9253Z" fill="white"/>
<path d="M113.763 39.3033C113.243 40.9628 116.998 40.6778 116.847 42.9103C116.731 44.6203 114.318 44.929 113.121 44.3472C112.83 44.2047 112.747 43.9691 112.872 43.6406C112.887 43.5996 112.912 43.5625 112.943 43.532C112.974 43.5015 113.012 43.4784 113.054 43.4642C113.095 43.45 113.139 43.4451 113.183 43.45C113.226 43.4548 113.268 43.4692 113.305 43.4922C113.865 43.8365 114.464 43.9494 115.101 43.8306C115.802 43.7 116.298 43.0142 115.882 42.3611C115.11 41.1379 112.554 41.3309 112.908 39.3715C113.195 37.7922 115.042 37.427 116.366 37.9525C116.423 37.975 116.471 38.0145 116.505 38.0655C116.538 38.1165 116.555 38.1765 116.553 38.2375L116.544 38.4542C116.542 38.5054 116.527 38.5553 116.501 38.5989C116.474 38.6426 116.436 38.6786 116.391 38.7034C116.346 38.7282 116.296 38.741 116.245 38.7405C116.194 38.74 116.143 38.7263 116.099 38.7006C115.563 38.3919 115.024 38.3503 114.484 38.5759C114.106 38.7323 113.865 38.9747 113.763 39.3033Z" fill="white"/>
<path d="M120.843 44.6648C119.989 44.6155 119.192 44.1999 118.626 43.5092C118.061 42.8186 117.773 41.9096 117.826 40.9821C117.88 40.0546 118.27 39.1846 118.911 38.5636C119.553 37.9425 120.393 37.6212 121.246 37.6704C122.1 37.7196 122.898 38.1353 123.463 38.8259C124.029 39.5166 124.317 40.4257 124.264 41.3532C124.21 42.2807 123.82 43.1507 123.178 43.7717C122.537 44.3928 121.697 44.714 120.843 44.6648H120.843ZM120.998 43.925C121.63 43.9371 122.242 43.658 122.699 43.1489C123.156 42.6398 123.42 41.9425 123.434 41.2104C123.448 40.4783 123.211 39.7714 122.774 39.2451C122.337 38.7189 121.736 38.4165 121.104 38.4043C120.472 38.3922 119.86 38.6714 119.403 39.1805C118.946 39.6896 118.682 40.3868 118.667 41.1189C118.653 41.851 118.891 42.558 119.328 43.0842C119.765 43.6104 120.366 43.9129 120.998 43.925ZM102.538 38.8936L102.648 38.8906C102.663 38.8896 102.678 38.885 102.692 38.8773C102.705 38.8696 102.716 38.8589 102.725 38.8461C103.156 38.1771 103.775 37.8228 104.58 37.7833C104.644 37.7797 104.708 37.7972 104.761 37.833C104.815 37.8689 104.855 37.9212 104.877 37.9822L104.948 38.187C104.964 38.2337 104.968 38.2836 104.96 38.3323C104.952 38.3809 104.932 38.4268 104.901 38.4657C104.871 38.5046 104.832 38.5353 104.786 38.5551C104.741 38.5748 104.692 38.583 104.643 38.5789C103.453 38.4779 102.768 39.0559 102.588 40.3126C102.442 41.324 102.428 42.5709 102.547 44.0533C102.553 44.1275 102.531 44.2013 102.485 44.2601C102.44 44.319 102.374 44.3585 102.3 44.3709L102.024 44.4154C101.982 44.4223 101.938 44.4199 101.897 44.4083C101.855 44.3967 101.817 44.3762 101.784 44.3482C101.751 44.3203 101.725 44.2855 101.707 44.2464C101.689 44.2072 101.68 44.1646 101.68 44.1215V38.2167C101.68 38.1474 101.704 38.0804 101.749 38.0273C101.793 37.9741 101.855 37.9382 101.923 37.9258C102.509 37.8149 102.682 38.095 102.443 38.7659C102.437 38.7807 102.436 38.7967 102.438 38.8123C102.44 38.828 102.446 38.8428 102.456 38.8555C102.465 38.8681 102.477 38.8783 102.492 38.8849C102.506 38.8916 102.522 38.8945 102.538 38.8936Z" fill="white"/>
<path d="M93.6967 37.8545H93.3345C93.1886 37.8545 93.0703 37.9728 93.0703 38.1187V44.169C93.0703 44.3149 93.1886 44.4332 93.3345 44.4332H93.6967C93.8426 44.4332 93.9609 44.3149 93.9609 44.169V38.1187C93.9609 37.9728 93.8426 37.8545 93.6967 37.8545Z" fill="white"/>
<path d="M27.7697 40.5917L44.9261 38.2196C44.9415 38.2175 44.9571 38.2187 44.972 38.2231C44.9869 38.2275 45.0007 38.235 45.0124 38.2451C45.0242 38.2552 45.0337 38.2676 45.0403 38.2817C45.0469 38.2957 45.0505 38.311 45.0508 38.3265V54.5893C45.0508 54.6185 45.0392 54.6464 45.0186 54.667C44.998 54.6876 44.9701 54.6992 44.9409 54.6992H27.7994C27.7702 54.6992 27.7423 54.6876 27.7217 54.667C27.7011 54.6464 27.6895 54.6185 27.6895 54.5893L27.6747 40.6985C27.6752 40.6723 27.685 40.6471 27.7024 40.6275C27.7198 40.6079 27.7437 40.5952 27.7697 40.5917Z" fill="white"/>
<path d="M84.1165 58.4903L96.9682 58.4992C97.0075 58.4992 97.0463 58.4914 97.0825 58.4763C97.1188 58.4612 97.1516 58.4391 97.1792 58.4112C97.2068 58.3833 97.2286 58.3502 97.2434 58.3139C97.2581 58.2775 97.2655 58.2386 97.2651 58.1993L97.2087 47.8117C97.2087 47.7345 97.2387 47.6603 97.2925 47.6048C97.3463 47.5494 97.4195 47.5171 97.4967 47.5148L99.2215 47.4554C99.2611 47.4538 99.3006 47.4603 99.3376 47.4745C99.3747 47.4887 99.4085 47.5103 99.437 47.5381C99.4656 47.5658 99.4883 47.5991 99.5038 47.6359C99.5193 47.6727 99.5273 47.7123 99.5273 47.7523V71.8556C99.5273 71.8956 99.5193 71.9352 99.5036 71.972C99.488 72.0088 99.465 72.0421 99.4362 72.0698C99.4074 72.0976 99.3732 72.1192 99.3358 72.1334C99.2984 72.1476 99.2585 72.1541 99.2186 72.1525L97.6006 72.0931C97.5239 72.0908 97.4511 72.0589 97.3974 72.0041C97.3438 71.9493 97.3134 71.8759 97.3126 71.7992L97.2206 61.2898C97.2206 61.2372 97.2339 61.1851 97.2592 61.1384C97.3364 61.0058 97.3423 60.8811 97.277 60.7643C97.2561 60.7281 97.2262 60.6981 97.1902 60.6772C97.1542 60.6564 97.1135 60.6455 97.0722 60.6456L84.1254 60.6189C84.0472 60.6189 83.9721 60.6497 83.9166 60.7048C83.861 60.7598 83.8293 60.8346 83.8286 60.9128L83.7781 71.8437C83.7773 71.9227 83.7457 71.9982 83.6901 72.0538C83.6345 72.1094 83.5594 72.1406 83.4812 72.1406L81.7831 72.1436C81.7439 72.1436 81.705 72.1358 81.6688 72.1207C81.6326 72.1056 81.5997 72.0834 81.5721 72.0556C81.5445 72.0277 81.5227 71.9946 81.508 71.9582C81.4932 71.9219 81.4858 71.883 81.4862 71.8437L81.5248 47.7998C81.5248 47.7216 81.5557 47.6465 81.6107 47.5909C81.6657 47.5353 81.7405 47.5037 81.8187 47.5029L83.5109 47.4881C83.5501 47.4877 83.5891 47.4951 83.6254 47.5098C83.6618 47.5246 83.6949 47.5464 83.7227 47.574C83.7506 47.6016 83.7728 47.6345 83.7879 47.6707C83.803 47.7069 83.8107 47.7457 83.8107 47.785L83.8197 58.1934C83.8197 58.2721 83.8509 58.3477 83.9066 58.4033C83.9623 58.459 84.0378 58.4903 84.1165 58.4903ZM190.134 68.6315C190.147 68.5642 190.159 68.495 190.169 68.4237C190.215 68.1288 190.271 67.8884 190.338 67.7023C192.787 61.0147 195.263 54.334 197.766 47.6603C197.788 47.6027 197.827 47.5534 197.878 47.5188C197.929 47.4843 197.99 47.4663 198.051 47.4673L199.874 47.5C199.922 47.5006 199.968 47.5127 200.01 47.5352C200.052 47.5578 200.088 47.5902 200.114 47.6296C200.141 47.669 200.157 47.7142 200.162 47.7615C200.168 47.8087 200.161 47.8565 200.144 47.9008L190.989 71.9298C190.967 71.9857 190.93 72.0338 190.881 72.0677C190.832 72.1017 190.775 72.1198 190.715 72.1198L188.904 72.1347C188.844 72.1357 188.785 72.1177 188.735 72.0831C188.685 72.0485 188.646 71.9991 188.625 71.9417L179.841 47.877C179.825 47.8315 179.82 47.7828 179.826 47.735C179.833 47.6872 179.851 47.6416 179.879 47.6023C179.907 47.5629 179.944 47.5309 179.987 47.509C180.03 47.487 180.078 47.4758 180.126 47.4762L182.082 47.5089C182.142 47.5099 182.201 47.5295 182.25 47.5651C182.299 47.6007 182.335 47.6505 182.355 47.7078L189.768 68.6583C189.923 69.0937 190.044 69.0848 190.134 68.6315ZM124.022 57.2761C125.95 54.5982 128.498 53.6116 131.667 54.3162C139.822 56.1301 138.724 71.0451 130.482 72.3603C127.627 72.8175 125.468 71.9555 124.008 69.7745C123.719 69.3411 123.574 69.3856 123.574 69.9081V79.9573C123.574 80.0355 123.543 80.1106 123.488 80.1662C123.433 80.2218 123.358 80.2534 123.28 80.2542L121.644 80.2601C121.606 80.2605 121.567 80.2531 121.531 80.2384C121.495 80.2236 121.462 80.2018 121.435 80.1742C121.407 80.1466 121.385 80.1138 121.37 80.0776C121.355 80.0413 121.348 80.0025 121.348 79.9632V54.7734C121.348 54.6947 121.379 54.6192 121.435 54.5635C121.49 54.5078 121.566 54.4765 121.644 54.4765H123.268C123.347 54.4765 123.422 54.5074 123.477 54.5624C123.533 54.6175 123.564 54.6922 123.565 54.7704L123.592 57.1395C123.598 57.6204 123.741 57.666 124.022 57.2761ZM129.084 56.0411C124.109 56.3528 123.254 61.1295 123.619 65.1878C124.022 69.7032 129.155 72.5414 132.7 69.0887C136.221 65.6539 135.906 55.6136 129.084 56.0411ZM142.221 64.0122C142.648 68.2129 144.626 70.962 149.194 70.4781C150.734 70.3158 152.156 69.7735 153.461 68.8512C153.773 68.6315 153.93 68.7127 153.93 69.0947V70.5256C153.93 70.5756 153.917 70.6249 153.893 70.669C153.868 70.7131 153.833 70.7506 153.79 70.7779C149.183 73.6101 142.426 73.2093 140.558 67.2629C139.436 63.6856 139.819 59.5531 142.257 56.709C145.006 53.4998 151.189 52.912 153.624 56.9376C154.74 58.7802 155.201 60.9336 155.007 63.3976C155.001 63.4721 154.968 63.5416 154.913 63.5923C154.859 63.6429 154.787 63.6709 154.713 63.6707L142.515 63.6856C142.473 63.6858 142.433 63.6946 142.395 63.7116C142.357 63.7285 142.323 63.7531 142.296 63.7839C142.268 63.8146 142.247 63.8508 142.234 63.8901C142.221 63.9294 142.217 63.971 142.221 64.0122ZM143.744 58.0212C142.976 58.9257 142.514 60.036 142.357 61.3522C142.352 61.3937 142.356 61.4359 142.369 61.4759C142.382 61.5159 142.403 61.5529 142.431 61.5843C142.459 61.6157 142.493 61.6409 142.532 61.6582C142.57 61.6755 142.612 61.6845 142.654 61.6847L152.424 61.6728C152.464 61.6728 152.503 61.6649 152.539 61.6494C152.575 61.6339 152.608 61.6113 152.636 61.5827C152.663 61.5542 152.684 61.5204 152.699 61.4834C152.713 61.4463 152.72 61.4067 152.718 61.367C152.675 59.8173 152.279 58.5912 151.531 57.6887C149.417 55.1356 145.721 55.6878 143.744 58.0212ZM161.595 57.4334C161.698 57.2493 161.801 57.0643 161.904 56.8782C163.109 54.7407 164.959 53.7818 167.47 54.3756C167.534 54.3901 167.591 54.4254 167.632 54.4759C167.674 54.5265 167.697 54.5894 167.699 54.6547L167.743 56.237C167.744 56.2854 167.734 56.3334 167.712 56.3769C167.691 56.4204 167.66 56.458 167.621 56.4866C167.582 56.5152 167.537 56.5339 167.49 56.5411C167.442 56.5483 167.394 56.5438 167.348 56.5279C165.041 55.7343 163.34 56.4389 162.245 58.6417C161.438 60.2656 161.215 61.839 161.212 63.8251C161.208 66.499 161.199 69.1748 161.185 71.8526C161.185 71.8925 161.177 71.9319 161.161 71.9685C161.145 72.0052 161.123 72.0383 161.094 72.0659C161.066 72.0936 161.032 72.1152 160.995 72.1295C160.958 72.1439 160.919 72.1507 160.879 72.1495L159.264 72.105C159.187 72.1027 159.114 72.0704 159.06 72.0149C159.007 71.9595 158.976 71.8853 158.977 71.8081V54.7675C158.977 54.7282 158.984 54.6894 158.999 54.6532C159.015 54.617 159.037 54.5841 159.065 54.5565C159.092 54.5289 159.125 54.5071 159.162 54.4923C159.198 54.4776 159.237 54.4702 159.276 54.4706L160.897 54.4795C160.937 54.4799 160.975 54.488 161.011 54.5035C161.047 54.519 161.08 54.5414 161.107 54.5696C161.135 54.5978 161.156 54.6311 161.171 54.6676C161.185 54.7041 161.192 54.7431 161.191 54.7823L161.15 57.3147C161.14 57.946 161.288 57.9856 161.595 57.4334ZM110.378 69.3915C110.437 69.7676 110.535 69.7775 110.672 69.4212L116.295 54.6665C116.316 54.6108 116.354 54.5628 116.403 54.5289C116.452 54.495 116.511 54.4767 116.571 54.4765H118.245C118.294 54.4765 118.342 54.4883 118.384 54.511C118.427 54.5337 118.464 54.5665 118.491 54.6067C118.518 54.6468 118.535 54.693 118.541 54.7412C118.546 54.7894 118.539 54.8382 118.521 54.8832C115.658 62.0696 112.786 69.2263 109.906 76.3533C108.834 79.0043 106.355 80.9815 103.402 80.2809C103.338 80.2658 103.28 80.2299 103.239 80.1789C103.198 80.1279 103.174 80.0646 103.173 79.9989L103.14 78.5323C103.139 78.4902 103.147 78.4483 103.164 78.4095C103.18 78.3707 103.204 78.3358 103.235 78.3072C103.266 78.2785 103.303 78.2568 103.343 78.2434C103.383 78.23 103.425 78.2253 103.467 78.2295C103.716 78.2552 103.962 78.2869 104.203 78.3245C107.252 78.7906 108.505 74.6076 109.437 72.105C109.464 72.0381 109.464 71.9627 109.437 71.8942L102.852 54.8803C102.835 54.8354 102.829 54.7869 102.834 54.7391C102.84 54.6913 102.857 54.6456 102.884 54.6058C102.911 54.5661 102.948 54.5336 102.99 54.511C103.033 54.4885 103.08 54.4767 103.128 54.4765H104.916C104.977 54.4774 105.036 54.4966 105.086 54.5315C105.136 54.5665 105.174 54.6156 105.195 54.6725C106.911 59.3849 108.611 64.1032 110.295 68.8275C110.333 68.9264 110.356 69.0679 110.366 69.252C110.368 69.2995 110.372 69.346 110.378 69.3915Z" fill="white"/>
<path d="M45.0508 57.0802V73.1055C45.0506 73.127 45.0458 73.1482 45.0367 73.1677C45.0276 73.1872 45.0145 73.2046 44.9982 73.2186C44.982 73.2327 44.9629 73.2431 44.9422 73.2492C44.9216 73.2552 44.8999 73.2569 44.8786 73.2539L27.8142 70.9175C27.7783 70.9125 27.7453 70.8948 27.7213 70.8675C27.6974 70.8403 27.684 70.8054 27.6836 70.7691V57.0772C27.6836 57.037 27.6995 56.9985 27.7279 56.9701C27.7563 56.9417 27.7948 56.9258 27.835 56.9258L44.8994 56.9287C44.9395 56.9287 44.978 56.9447 45.0064 56.9731C45.0348 57.0015 45.0508 57.04 45.0508 57.0802ZM46.9805 73.4736V57.0238C46.9805 57.0109 46.983 56.9981 46.9879 56.9863C46.9928 56.9744 47.0001 56.9636 47.0092 56.9545C47.0183 56.9454 47.0291 56.9382 47.0409 56.9332C47.0528 56.9283 47.0656 56.9258 47.0784 56.9258H69.5905C69.6033 56.9258 69.6161 56.9283 69.628 56.9332C69.6398 56.9382 69.6506 56.9454 69.6597 56.9545C69.6688 56.9636 69.6761 56.9744 69.681 56.9863C69.6859 56.9981 69.6884 57.0109 69.6884 57.0238L69.6973 76.567C69.6975 76.5812 69.6946 76.5953 69.6888 76.6083C69.6829 76.6213 69.6744 76.6328 69.6636 76.6421C69.6529 76.6515 69.6402 76.6583 69.6266 76.6623C69.6129 76.6662 69.5986 76.6672 69.5845 76.665L47.0666 73.5716C47.0427 73.5686 47.0207 73.5571 47.0048 73.539C46.989 73.5209 46.9803 73.4976 46.9805 73.4736Z" fill="white"/>
<path d="M177.306 61.082H168.091C168.048 61.082 168.013 61.1166 168.013 61.1592V62.9345C168.013 62.9772 168.048 63.0117 168.091 63.0117H177.306C177.348 63.0117 177.383 62.9772 177.383 62.9345V61.1592C177.383 61.1166 177.348 61.082 177.306 61.082Z" fill="white"/>
<path d="M72.5236 75.1777L72.393 76.5522C72.392 76.565 72.3879 76.5773 72.3811 76.5877C72.3744 76.5981 72.3651 76.6063 72.3544 76.6116C72.0189 76.7927 72.2059 75.2875 72.2059 75.1599C72.2068 75.1019 72.1906 75.045 72.1594 74.9964C72.1283 74.9478 72.0835 74.9096 72.0308 74.8867C70.5494 74.2217 73.723 74.391 72.6809 74.9402C72.637 74.9639 72.5997 74.998 72.5722 75.0395C72.5448 75.0809 72.5281 75.1284 72.5236 75.1777ZM73.8595 76.0653L73.8001 76.5017C73.7944 76.5457 73.7733 76.5858 73.7408 76.6146C73.4083 76.9263 73.5923 74.8867 73.5805 74.7591C73.5786 74.7357 73.5822 74.7122 73.591 74.6905C73.5998 74.6687 73.6135 74.6493 73.631 74.6338C73.6486 74.6182 73.6695 74.607 73.6922 74.6009C73.7148 74.5948 73.7386 74.5941 73.7616 74.5988C73.9367 74.6314 74.385 75.7388 74.8006 76.0267C74.865 76.0719 74.9087 76.141 74.9221 76.219C74.9354 76.2969 74.9174 76.3772 74.8719 76.4424L74.8303 76.5017C74.6739 76.7254 74.5819 76.7016 74.5542 76.4305C74.5364 76.2623 74.4899 76.1079 74.4147 75.9674C74.1257 75.4251 73.9407 75.4577 73.8595 76.0653ZM75.3766 75.62L75.3083 75.6913C75.0728 75.9387 75.0193 75.904 75.148 75.5874L75.4805 74.765C75.5111 74.6907 75.5687 74.632 75.6408 74.6017C76.1425 74.3969 76.0534 76.0742 76.0801 76.3741C76.0838 76.4228 76.0724 76.4714 76.0474 76.5134C76.0225 76.5554 75.9852 76.5886 75.9406 76.6086C75.7645 76.6898 75.6724 76.6027 75.6645 76.3474C75.6606 76.2425 75.6675 76.1445 75.6853 76.0535C75.7051 75.9486 75.712 75.8437 75.7061 75.7388C75.6883 75.4459 75.5784 75.4063 75.3766 75.62Z" fill="white"/>
</svg>
