<svg width="60" height="70" viewBox="0 0 60 70" fill="none" xmlns="http://www.w3.org/2000/svg">
<path d="M29.022 17.7871C29.022 18.0114 28.7964 18.0114 28.7964 18.0114H28.5709C28.3453 18.0114 28.3453 17.7871 28.1197 17.5627C28.1197 17.5627 27.8942 17.3383 27.8942 17.114C27.8942 16.8896 27.8942 16.8896 28.1197 16.8896L28.5709 17.114C28.7964 17.3383 29.022 17.5627 29.022 17.7871ZM24.9618 15.5435C24.9618 14.4217 24.5107 13.7486 23.834 13.7486C23.834 13.7486 23.834 13.973 23.6085 13.973V14.4217H24.2851C24.2851 14.8704 24.5107 15.0948 24.5107 15.5435H24.9618ZM32.8566 14.4217C33.3077 14.4217 33.5333 14.8704 33.7588 15.5435H34.21C33.9844 15.3191 33.9844 15.0948 33.9844 14.8704C33.9844 14.646 33.9844 14.4217 33.7588 14.1973C33.5333 13.973 33.3077 13.7486 33.0821 13.7486C33.0821 13.7486 32.8566 13.973 32.631 13.973C32.631 14.1973 32.8566 14.1973 32.8566 14.4217ZM26.0897 18.0114C25.8641 18.0114 25.8641 18.0114 25.8641 17.7871C25.8641 17.5627 25.8641 17.3383 26.0897 17.114C26.5408 17.114 26.7664 16.8896 26.7664 16.8896C26.9919 16.8896 26.9919 17.114 26.9919 17.114C26.9919 17.3383 26.7664 17.5627 26.3152 18.0114H26.0897ZM23.6085 17.7871C22.7062 17.3383 22.4806 16.6653 22.4806 15.5435C22.4806 14.8704 22.4806 14.4217 22.9318 13.973C23.1573 13.5242 23.6085 13.2999 24.0596 13.2999C24.5107 13.2999 24.7363 13.5242 25.1874 13.973C25.413 14.646 25.6385 15.3191 25.6385 15.9922V16.4409H25.8641V16.2165C26.0897 16.2165 26.0897 15.7678 26.0897 14.8704C26.0897 14.1973 26.0897 13.5242 25.6385 12.8512C25.1874 12.1781 24.7363 11.7294 23.834 11.7294C23.1573 11.7294 22.4806 12.1781 22.2551 12.8512C21.8039 13.7486 21.7137 14.4217 21.7137 15.5435C21.7137 16.4409 22.0295 17.3383 22.9318 18.2358C23.1573 18.0114 23.3829 18.0114 23.6085 17.7871ZM51.8039 49.4217C52.0295 49.4217 52.0295 49.3319 52.0295 49.13C52.0295 48.6364 51.8039 48.0531 51.1273 47.4025C50.4506 46.7294 49.3227 46.3031 47.9694 46.1236C47.7438 46.1012 47.5182 46.1012 47.5182 46.1012C47.2927 46.0563 47.2927 46.0563 47.0671 46.0563C46.8415 46.0339 46.3904 45.989 46.1648 45.9441C46.8415 43.8576 47.0671 42.0178 47.0671 40.4025C47.0671 38.1589 46.616 36.5883 45.7137 35.2422C44.8115 33.896 43.9092 33.223 42.7814 32.9986C42.5558 33.223 42.5558 33.223 42.5558 33.4473C43.6836 33.896 44.8115 34.7935 45.4882 36.1396C46.1648 37.7101 46.3904 39.0563 46.3904 40.6268C46.3904 41.8832 46.1648 43.7454 45.2626 46.1236C44.3603 46.4826 43.4581 47.3127 42.7814 48.614C42.7814 48.8159 42.7814 48.9281 43.007 48.9281C43.007 48.9281 43.2325 48.7262 43.4581 48.3448C43.9092 47.9633 44.1348 47.5819 44.5859 47.2005C45.2626 46.8191 45.7137 46.6172 46.3904 46.6172C47.5182 46.6172 48.646 46.7742 49.3227 47.0883C50.225 47.38 50.6761 47.6941 50.9017 48.0531C51.1273 48.3896 51.3528 48.7037 51.5784 48.9954C51.5784 49.2871 51.8039 49.4217 51.8039 49.4217ZM31.0521 16.8896C30.8265 16.6653 30.8265 16.2165 30.8265 15.7678C30.8265 14.8704 30.8265 14.4217 31.2776 13.7486C31.7288 13.2999 32.1799 13.0755 32.631 13.0755C33.3077 13.0755 33.7588 13.5242 34.21 13.973C34.4355 14.646 34.6611 15.0948 34.6611 15.7678C34.6611 16.8896 34.21 17.5627 33.3077 17.7871C33.3077 17.7871 33.5333 18.0114 33.7588 18.0114C34.21 18.0114 34.4355 18.2358 34.8867 18.4601C35.1122 17.114 35.3378 16.2165 35.3378 15.0948C35.3378 13.7486 35.1122 12.8512 34.6611 12.1781C33.9844 11.505 33.3077 11.2807 32.4054 11.2807C31.7288 11.2807 31.0521 11.505 30.3754 11.9537C29.9242 12.6268 29.6987 13.0755 29.6987 13.7486C29.6987 14.8704 29.9242 15.7678 30.3754 16.6653C30.6009 16.6653 30.8265 16.8896 31.0521 16.8896ZM33.7588 20.4794C30.8265 22.4986 28.5709 23.396 26.7664 23.396C25.1874 23.396 23.6085 22.723 22.2551 21.6012C22.4806 22.0499 22.7062 22.4986 22.9318 22.723L24.2851 24.0691C25.1874 24.9666 26.3152 25.4153 27.443 25.4153C29.022 25.4153 30.8265 24.5178 33.0821 22.9473L35.1122 21.6012C35.5633 21.1524 36.0145 20.7037 36.0145 20.0307C36.0145 19.8063 36.0145 19.5819 35.7889 19.5819C35.5633 19.1332 34.4355 18.4601 32.1799 17.7871C30.1498 16.8896 28.5709 16.4409 27.6686 16.4409C26.9919 16.4409 25.8641 16.8896 24.2851 17.7871C22.9318 18.6845 22.0295 19.5819 22.0295 20.4794C22.0295 20.4794 22.2551 20.7037 22.4806 21.1524C23.834 22.2742 25.1874 22.9473 26.5408 22.9473C28.3453 22.9473 30.6009 22.0499 33.5333 19.8063V20.255C33.7588 20.255 33.7588 20.4794 33.7588 20.4794ZM38.9468 65.7999C39.8491 67.4871 41.428 68.3351 43.2325 68.3351C43.6836 68.3351 44.1348 68.2678 44.5859 68.1332C45.037 68.0435 45.4882 67.8864 45.7137 67.7069C45.9393 67.5499 46.1648 67.3928 46.3904 67.2133C46.8415 67.0563 46.8415 66.9441 47.0671 66.8319L50.9017 63.5339C51.8039 62.8182 52.7062 62.1922 53.834 61.6492C54.7363 61.1108 55.6385 60.7518 56.0897 60.5499C56.7663 60.3704 57.2175 60.1012 57.6686 59.7422C57.8942 59.4057 58.1197 58.9794 58.1197 58.4409C58.1197 57.7903 57.6686 57.2967 57.2175 56.9377C56.7663 56.5787 56.3152 56.3319 55.8641 56.1749C55.413 56.0178 54.9618 55.6589 54.2851 55.0531C53.834 54.4698 53.3829 53.6621 53.1573 52.6076L52.9318 51.3063C52.7062 50.7005 52.7062 50.2518 52.4806 50.005C52.4806 49.9377 52.4806 49.9153 52.2551 49.9153C52.0295 49.9153 51.5784 50.1172 51.3528 50.4986C50.9017 50.88 50.4506 51.3063 49.9994 51.755C49.7739 52.2037 49.0972 52.6076 48.646 52.989C47.9694 53.3704 47.2927 53.5723 46.8415 53.5723C45.037 53.5723 44.1348 53.0787 43.4581 52.114C43.007 51.396 42.7814 50.5659 42.5558 49.6236C42.1047 49.2422 41.8791 49.0403 41.428 49.0403C40.3002 49.0403 39.8491 50.2069 39.8491 52.5627V59.5403C39.8491 59.7422 39.6235 60.1909 39.6235 60.8864C39.3979 61.5819 39.3979 62.3717 39.3979 63.2646L38.9468 65.755V65.7932M6.24004 64.6063C8.33778 64.9114 10.7513 65.5643 13.4806 66.5605C16.21 67.5476 17.8791 68.0637 18.4882 68.0637C20.0671 68.0637 21.3754 67.3682 22.4581 66.0242C22.6836 65.589 22.6836 65.0774 22.6836 64.4896C22.6836 62.3694 21.3979 59.6884 18.8265 56.4351L17.2927 54.3935C16.9769 53.9672 16.5934 53.3166 16.0972 52.4416C15.6235 51.5666 15.1949 50.8935 14.8566 50.4223C14.5633 49.9063 14.0897 49.3903 13.4806 48.8742C12.8942 48.3582 12.2175 48.0217 11.4731 47.8422C10.5258 48.0217 9.87161 48.3358 9.55583 48.7621C9.24004 49.1883 9.05958 49.6595 9.01447 50.1531C8.9468 50.6242 8.81147 50.9384 8.5859 51.0954C8.36034 51.23 7.97688 51.3422 7.45808 51.4544C7.3453 51.4544 7.14229 51.4544 6.84906 51.4768H6.24004C5.04455 51.4768 4.23252 51.6114 3.80395 51.8358C3.24004 52.4864 2.9468 53.2268 2.9468 54.0121C2.9468 54.371 3.03703 54.9768 3.21748 55.8294C3.39793 56.6595 3.48816 57.3326 3.48816 57.8037C3.48816 58.7236 3.21748 59.6435 2.65357 60.5633C2.08966 61.5281 1.79643 62.246 1.79643 62.7576C2.02199 63.6281 3.51071 64.2406 6.24004 64.5996M13.7513 44.2053C13.7513 42.6573 14.1573 40.9521 14.9919 38.9329C15.8039 36.9137 16.616 35.5675 17.4055 34.6701C17.3603 34.4457 17.2476 34.4457 17.0671 34.4457L16.8415 34.2214C16.1874 34.8944 15.3979 36.465 14.4506 38.7085C13.5032 40.7278 13.007 42.59 13.007 43.9585C13.007 44.9682 13.2551 45.8432 13.7062 46.606C14.2024 47.3464 15.3979 48.4233 17.2927 49.7919L19.6836 51.34C22.2325 53.5387 23.5859 55.0643 23.5859 55.9618C23.5859 56.4329 23.3603 56.9041 22.6836 57.4201C22.2325 57.9585 21.6235 58.2278 21.1047 58.2278C21.0596 58.2278 21.037 58.2726 21.037 58.3848C21.037 58.4073 21.2626 58.856 21.7363 59.731C22.6836 61.0098 24.7137 61.638 27.4205 61.638C32.3829 61.638 36.2175 59.6188 39.1498 55.5803C39.1498 54.4585 39.1498 53.763 38.9242 53.4714V52.6412C38.9242 51.1829 39.1498 50.0835 39.6009 49.3656C40.0521 48.6476 40.5032 48.3111 41.1799 48.3111C41.631 48.3111 42.0821 48.4682 42.5333 48.8047C42.7588 47.0771 42.7588 45.5739 42.7588 44.2278C42.7588 42.1861 42.7588 40.5034 42.3077 38.9329C42.0821 37.5867 41.631 36.465 41.1799 35.5675L39.8265 33.5483C39.3754 32.8752 39.1498 32.2021 38.6987 31.5291C38.4731 30.6316 38.2476 29.9585 38.2476 28.8367C37.5709 27.7149 37.1197 26.5932 36.443 25.4714C35.9919 24.3496 35.5408 23.2278 35.0897 22.3303L33.0596 23.9008C30.8039 25.4714 28.9994 26.1444 27.4205 26.1444C26.0671 26.1444 24.9393 25.9201 24.2626 25.0226L22.9092 23.9008C22.9092 24.5739 22.6836 25.4714 22.2325 26.3688L20.8115 29.0611C20.1799 30.6316 19.8415 31.5291 19.7739 32.2021C19.6836 32.6508 19.616 33.0996 19.5709 33.0996L17.8791 36.465C16.0521 39.8303 15.1273 42.9489 15.1273 45.5291C15.1273 46.0451 15.1724 46.5835 15.2626 47.122C14.2476 46.4265 13.7513 45.4617 13.7513 44.2053ZM29.9017 65.4297C26.9694 65.4297 24.7137 65.8246 23.1348 66.6076V66.5403C22.007 67.8864 20.7438 68.5819 18.9844 68.5819C17.8791 68.5819 16.1423 68.1557 13.7964 67.3031C11.428 66.4954 9.33026 65.8762 7.50319 65.4678C7.32274 65.4162 6.91673 65.34 6.26259 65.2367C5.63101 65.1358 5.04455 65.0326 4.52575 64.9294C4.05207 64.8284 3.51071 64.6758 2.92425 64.4694C2.36034 64.2922 1.90921 64.0611 1.57086 63.7807C1.25958 63.498 1.1062 63.1794 1.1062 62.8226C1.1062 62.4637 1.18289 62.08 1.33628 61.6717C1.48064 61.4249 1.63853 61.1781 1.79643 60.9537C1.95432 60.7069 2.08966 60.4826 2.17989 60.2582C2.31522 60.0563 2.40545 59.8544 2.49567 59.63C2.5859 59.4281 2.67613 59.2262 2.72124 58.9794C2.76635 58.755 2.81146 58.5307 2.81146 58.3063C2.81146 58.0819 2.72124 57.4089 2.54079 56.2198C2.36034 55.0531 2.27011 54.3127 2.27011 53.9986C2.27011 53.0114 2.49567 52.2262 2.99192 51.6653C3.48816 51.1044 3.96184 50.8127 4.45808 50.8127H7.05207C7.25507 50.8127 7.57086 50.7005 8.04455 50.4313C8.20244 50.0723 8.33778 49.7807 8.42801 49.5114C8.54079 49.2422 8.5859 49.0403 8.63101 48.9505C8.67613 48.8159 8.72124 48.6813 8.76635 48.5691C8.85658 48.4121 8.96936 48.2326 9.12725 48.0531C8.9468 47.8287 8.85658 47.5371 8.85658 47.1781C8.85658 46.9313 8.85658 46.7069 8.90169 46.5723C8.90169 45.7646 9.28515 44.6204 10.0972 43.1172L10.8867 41.7037C11.5408 40.4922 12.037 39.5948 12.3979 38.6973C12.7814 37.7999 13.1874 36.4537 13.6385 34.6589C13.9994 33.0883 14.8566 31.5178 16.21 29.9473L17.9017 27.9281C19.0746 26.5819 19.8415 25.4601 20.2701 24.5627C20.6987 23.6653 20.9242 22.5435 20.9242 21.646C20.9242 21.1973 20.8115 19.8512 20.5633 17.6076C20.3378 15.364 20.225 13.1204 20.225 11.1012C20.225 9.53065 20.3603 8.40886 20.6536 7.28706C20.9468 6.16527 21.4656 5.04347 22.2325 4.14604C22.9092 3.2486 23.8115 2.35116 25.1648 1.90245C26.5182 1.45373 28.0972 1.22937 29.9017 1.22937C30.5784 1.22937 31.2551 1.22937 31.9318 1.45373C32.6085 1.45373 33.5107 1.67809 34.6385 2.12681C35.5408 2.57552 36.443 3.02424 37.1197 3.69732C38.022 4.3704 38.6987 5.49219 39.3754 6.61399C39.8265 7.96014 40.2776 9.30629 40.5032 11.1012C40.7288 12.223 40.7288 13.3448 40.9543 14.9153C40.9543 16.2614 41.1799 17.1589 41.1799 17.8319C41.4054 18.505 41.4054 19.4024 41.631 20.5242C41.8566 21.4217 42.0821 22.3191 42.5333 22.9922C42.9844 23.8896 43.4355 24.7871 44.1122 25.6845C44.7889 26.8063 45.6912 27.9281 46.5934 29.2742C48.6235 31.5178 50.2024 33.9858 51.1047 36.4537C52.2325 38.6973 52.9092 41.614 52.9092 44.7326C52.9092 46.2807 52.6836 47.7839 52.2325 49.2422C52.6836 49.2422 52.9092 49.4217 53.1348 49.7358C53.3603 50.0499 53.5859 50.723 53.8115 51.7775L54.037 53.4377C54.2626 53.9313 54.4882 54.4025 55.1648 54.8063C55.616 55.2101 56.0671 55.5467 56.7438 55.8159C57.1949 56.0403 57.8716 56.3544 58.3227 56.7582C58.7739 57.2069 58.9994 57.6781 58.9994 58.1717C58.9994 58.9345 58.7739 59.4954 58.3227 59.8992C57.8716 60.348 57.4205 60.6621 56.7438 60.864C56.2927 61.0883 55.3904 61.5371 54.037 62.1698C52.9092 62.8339 51.7814 63.6393 50.6536 64.5928L48.3979 66.5021C47.4957 67.3771 46.5934 68.0053 45.9167 68.3867C45.24 68.7906 44.3378 68.9925 43.4355 68.9925L41.8566 68.813C40.0521 68.3419 38.9242 67.4444 38.2476 66.0759C34.6385 65.6406 31.7062 65.4252 29.9017 65.4252" fill="#F6F6F6"/>
</svg>
