<svg width="173" height="49" viewBox="0 0 173 49" fill="none" xmlns="http://www.w3.org/2000/svg">
<g clip-path="url(#clip0_55_78)">
<path d="M29.7683 46.3832C38.0354 44.9474 44.8635 43.7593 44.9419 43.743L45.0845 43.7133L37.2796 34.5861C32.9869 29.5661 29.4747 25.4394 29.4747 25.4156C29.4747 25.3706 37.5339 3.55131 37.5792 3.47369C37.5943 3.44773 43.0789 12.757 50.8741 26.0401C58.1721 38.4759 64.189 48.7292 64.2449 48.8253L64.3466 49L39.542 48.9969L14.7373 48.9937L29.7683 46.3832ZM124.891 44.1759C121.115 43.9379 118.919 41.8241 118.337 37.8676C118.183 36.8151 118.182 36.7878 118.166 29.9551L118.151 23.3422H119.822H121.493L121.506 29.7386C121.518 35.5035 121.525 36.1794 121.582 36.585C121.809 38.2308 122.262 39.3376 123.033 40.1321C123.65 40.7679 124.373 41.1402 125.373 41.3377C125.845 41.4309 127.187 41.4311 127.617 41.3381C128.631 41.1187 129.444 40.6849 130.161 39.9804C130.978 39.1774 131.582 38.0381 131.875 36.7497L131.973 36.3155L131.984 29.865L131.995 23.4144H133.701H135.407V33.5549V43.6953H133.719H132.03V42.0864C132.03 40.9932 132.018 40.4815 131.992 40.49C131.971 40.4968 131.885 40.6273 131.8 40.7798C131.218 41.8231 130.248 42.7771 129.186 43.3519C127.913 44.0409 126.636 44.2858 124.891 44.1759ZM163.215 44.1595C161.882 44.061 160.479 43.6105 159.332 42.9129C156.914 41.4426 155.484 39.0191 155.065 35.6839C154.92 34.5298 154.903 32.9796 155.024 31.9989C155.294 29.8076 156.17 27.6565 157.417 26.1209C157.737 25.7272 158.462 25.0141 158.862 24.6998C159.944 23.851 161.208 23.2575 162.551 22.9687C163.334 22.8004 164.711 22.7214 165.543 22.7971C167.631 22.9874 169.545 23.954 170.846 25.4754C172.167 27.0211 172.894 29.181 172.986 31.8406C173.001 32.2574 173.004 32.9882 172.994 33.4646L172.976 34.3306L165.662 34.3397L158.348 34.3489V34.6697C158.348 35.6465 158.59 36.7591 159.008 37.7056C159.368 38.5219 159.987 39.4132 160.495 39.8446C161.536 40.729 162.809 41.2584 164.203 41.3858C164.72 41.4331 166.037 41.3833 166.626 41.2944C168.306 41.0405 169.903 40.3927 171.193 39.4419C171.345 39.33 171.49 39.2255 171.516 39.2096C171.553 39.1864 171.562 39.4786 171.561 40.7072L171.56 42.2337L171.214 42.4438C169.755 43.3311 168.083 43.9009 166.314 44.1141C165.785 44.1778 163.847 44.2061 163.215 44.1595ZM169.58 31.2851C169.58 29.6489 168.879 27.8313 167.886 26.8954C167.178 26.2274 166.322 25.8192 165.304 25.6642C164.823 25.5909 163.808 25.6191 163.3 25.72C162.227 25.9332 161.339 26.3971 160.565 27.1493C159.75 27.941 159.139 28.9025 158.754 29.9981C158.616 30.392 158.455 31.0388 158.404 31.3986L158.381 31.57H163.98H169.58V31.2851ZM70.3725 43.6501C70.3811 43.6253 72.8646 37.2109 75.8915 29.3959L81.3949 15.1867L83.1631 15.1866L84.9314 15.1865L85.0781 15.5564C85.5265 16.6868 96.0955 43.6644 96.0955 43.6784C96.0955 43.6877 95.249 43.6951 94.2143 43.6949L92.3332 43.6946L90.8099 39.7073L89.2866 35.72L83.1531 35.72L77.0197 35.7199L76.9664 35.8552C76.9371 35.9296 76.2862 37.7238 75.5201 39.8422L74.1272 43.6939L72.2421 43.6945C70.7499 43.695 70.3602 43.6858 70.3725 43.6501ZM88.1671 32.6772C88.1671 32.6709 87.142 29.9386 85.889 26.6056C83.5451 20.3699 83.4139 19.9948 83.2287 18.9937C83.1419 18.5242 83.098 18.5112 83.0464 18.9395C83.0096 19.2457 82.8498 19.9308 82.7266 20.3109C82.6655 20.4994 81.61 23.3477 80.381 26.6403C79.152 29.933 78.1464 32.6408 78.1464 32.6578C78.1464 32.6748 80.4011 32.6887 83.1567 32.6887C85.9124 32.6887 88.1671 32.6835 88.1671 32.6772ZM97.2334 43.1759V42.6566L103.344 34.3978L109.455 26.1389L103.922 26.1209L98.3896 26.1028L98.38 24.7225L98.3704 23.3422H106.373H114.375V23.8084V24.2746L108.263 32.5785C104.902 37.1456 102.152 40.8901 102.152 40.8994C102.152 40.9088 104.869 40.9165 108.19 40.9165H114.228V42.3059V43.6952H105.731H97.2334V43.1759ZM142.076 43.6712C142.062 43.6579 142.051 39.0785 142.051 33.4946V23.3422H143.721H145.391V25.4352C145.391 26.5864 145.405 27.5282 145.423 27.5282C145.44 27.5282 145.522 27.3398 145.604 27.1095C145.979 26.0541 146.63 25.068 147.469 24.2843C148.225 23.5782 149.089 23.156 150.108 22.9944C150.394 22.949 150.637 22.9404 151.209 22.955C151.928 22.9735 152.304 23.0251 152.742 23.1657L152.879 23.2099V24.9143V26.6186L152.485 26.4244C151.788 26.0814 151.1 25.9456 150.273 25.9879C149.735 26.0154 149.382 26.0833 148.952 26.242C148.067 26.5686 147.349 27.145 146.847 27.9319C146.121 29.0709 145.603 30.5351 145.45 31.8808C145.423 32.1223 145.407 34.0891 145.4 37.9664L145.391 43.6952H143.745C142.84 43.6952 142.089 43.6844 142.076 43.6712ZM0 43.5999C0 43.587 3.67763 37.3105 8.17252 29.6521L16.345 15.7278L25.8691 7.86985C31.1074 3.54799 35.4074 0.0066361 35.4246 0.000177527C35.4418 -0.00627977 35.3729 0.16423 35.2715 0.379091C35.17 0.593951 30.5162 10.4077 24.9296 22.1874L14.7723 43.605L7.38613 43.6141C3.32376 43.6191 0 43.6127 0 43.5999Z" fill="#F6F6F6"/>
</g>
<defs>
<clipPath id="clip0_55_78">
<rect width="173" height="49" fill="white"/>
</clipPath>
</defs>
</svg>
