<svg width="77" height="58" viewBox="0 0 77 58" fill="none" xmlns="http://www.w3.org/2000/svg">
<g clip-path="url(#clip0_55_86)">
<path fill-rule="evenodd" clip-rule="evenodd" d="M45.1941 0.0119723C53.8503 0.00896945 62.5069 -0.0173053 71.1631 0.019104C76.3092 0.0401238 77.7601 1.75586 76.6508 6.82689C73.4021 21.6781 70.0805 36.5143 66.7141 51.3397C65.6495 56.0256 63.2036 57.9452 58.2633 57.9598C40.9505 58.0112 23.6377 58.0168 6.32529 57.9575C0.666463 57.9376 -0.822068 56.0252 0.397121 50.6742C3.70522 36.1416 7.031 21.6136 10.3835 7.09114C11.6606 1.55693 13.5799 0.0374963 19.2244 0.0213561C27.881 -0.00304186 36.5376 0.0149751 45.1941 0.0119723Z" fill="#F6F6F6"/>
<path fill-rule="evenodd" clip-rule="evenodd" d="M32.1124 56.2328C23.455 56.2298 14.7973 56.2696 6.14037 56.2129C1.75039 56.1844 0.952139 55.1506 1.94036 50.8664C5.29059 36.3364 8.74878 21.8309 12.0245 7.28443C12.9029 3.383 14.7977 1.65863 18.9868 1.69729C36.3 1.85757 53.6161 1.74871 70.9304 1.76636C75.2726 1.77048 76.0017 2.69723 75.027 7.0915C71.8622 21.3576 68.6775 35.6195 65.4367 49.8687C64.2239 55.2013 62.8268 56.2189 57.2041 56.2313C48.8402 56.2489 40.4759 56.2358 32.1124 56.2328Z" fill="#F6F6F6"/>
<path fill-rule="evenodd" clip-rule="evenodd" d="M39.479 27.7577C38.8986 27.0783 38.2613 26.2961 37.5864 25.5484C33.7596 21.3069 29.9666 17.0339 26.0717 12.8558C24.2893 10.9438 23.7213 9.08688 25.8618 7.1996C27.977 5.3341 30.0554 5.49925 31.9957 7.64552C37.3995 13.6208 42.7969 19.6028 48.2902 25.4958C50.3411 27.6969 49.8633 29.1934 47.6044 30.8244C38.9339 37.0864 30.3123 43.4163 21.7001 49.7583C19.7643 51.1843 17.9188 51.5412 16.355 49.4351C14.6299 47.1121 16.226 45.73 18.0155 44.4298C24.4154 39.7784 30.8029 35.1098 37.1629 30.4043C38.0488 29.749 39.3206 29.3669 39.479 27.7577Z" fill="#2C2C2C"/>
<path fill-rule="evenodd" clip-rule="evenodd" d="M42.2202 50.2294C39.8894 50.2294 37.5552 50.3093 35.2297 50.2039C33.3744 50.1202 32.2579 49.0857 32.2812 47.1357C32.3038 45.292 33.2352 43.9058 35.0886 43.8559C40.1828 43.7196 45.2845 43.7489 50.3806 43.8484C52 43.8799 53.1955 44.9328 53.1858 46.6166C53.1741 48.5482 52.1554 50.0447 50.0823 50.1693C47.4701 50.327 44.8418 50.2084 42.2206 50.2084C42.2202 50.2148 42.2202 50.2223 42.2202 50.2294Z" fill="#2C2C2C"/>
</g>
<defs>
<clipPath id="clip0_55_86">
<rect width="77" height="58" fill="white"/>
</clipPath>
</defs>
</svg>
