<svg width="219" height="35" viewBox="0 0 219 35" fill="none" xmlns="http://www.w3.org/2000/svg">
<path fill-rule="evenodd" clip-rule="evenodd" d="M11.1054 1.03552C10.334 1.03552 9.66168 1.17501 9.00895 1.45475C8.376 1.73449 7.82201 2.11377 7.32751 2.61331L19.809 16.4406L32.27 2.61331C31.7755 2.11377 31.2212 1.73449 30.5487 1.45475C29.9355 1.17501 29.224 1.03552 28.4921 1.03552C27.7207 1.03552 26.9892 1.19529 26.3364 1.49502C25.6639 1.79474 25.11 2.23421 24.5957 2.75373L19.809 8.10869L14.963 2.75373C14.4685 2.23421 13.9145 1.79474 13.2222 1.49502C12.6091 1.19529 11.8768 1.03552 11.1054 1.03552ZM19.809 18.5388L7.32751 32.3867C7.82201 32.8662 8.376 33.2655 9.00895 33.5452C9.66168 33.825 10.3347 33.9645 11.0665 33.9645C11.8775 33.9645 12.5695 33.7847 13.2222 33.505C13.9145 33.1853 14.5073 32.7658 15.0018 32.2463L19.809 26.8913L24.6151 32.2463C25.1096 32.7658 25.6639 33.1853 26.3364 33.505C26.9892 33.7847 27.7009 33.9645 28.4921 33.9645C29.224 33.9645 29.9355 33.825 30.5487 33.5452C31.2212 33.2655 31.7755 32.8662 32.27 32.3867L19.809 18.5388Z" fill="#F6F6F6"/>
<path fill-rule="evenodd" clip-rule="evenodd" d="M5.09206 5.19165C4.30087 5.21163 3.52949 5.37104 2.8372 5.67077C2.12513 5.97049 1.51196 6.39034 0.977905 6.90986L10.5125 17.5L0.977905 28.0705C1.51196 28.61 2.12513 29.0291 2.8372 29.3488C3.52949 29.6685 4.30087 29.8086 5.09206 29.8486C5.94259 29.8086 6.73466 29.6693 7.46651 29.3096C8.19837 28.9699 8.83059 28.5095 9.36464 27.9301L18.7602 17.5L9.36464 7.08953C8.79103 6.53005 8.17792 6.07071 7.44607 5.71104C6.71421 5.37135 5.94259 5.21163 5.09206 5.19165ZM34.4461 5.19165C33.5956 5.21163 32.8434 5.37135 32.1116 5.71104C31.3797 6.07071 30.7468 6.53005 30.193 7.08953L20.8372 17.5L30.193 27.9301C30.7468 28.5095 31.3797 28.9699 32.1116 29.3096C32.8434 29.6693 33.5956 29.8086 34.4461 29.8486C35.2967 29.8086 36.0281 29.6685 36.7204 29.3488C37.4721 29.0291 38.0457 28.61 38.5797 28.0705L29.0656 17.5L38.5797 6.90986C38.0457 6.39034 37.4721 5.97049 36.7204 5.67077C36.0281 5.37104 35.2967 5.21163 34.4461 5.19165ZM118.865 6.98937C117.52 6.98937 116.255 7.54887 115.345 8.46803L123.514 17.4804L115.345 26.5712C116.255 27.4904 117.52 28.0705 118.865 28.0705C120.349 28.0705 121.635 27.4509 122.545 26.4318L127.055 21.3959L131.565 26.4318C132.475 27.4509 133.76 28.0705 135.224 28.0705C136.589 28.0705 137.834 27.4904 138.744 26.5712L130.575 17.4804L138.744 8.46803C137.834 7.54887 136.589 6.98937 135.224 6.98937C133.76 6.98937 132.475 7.60937 131.565 8.60845L127.055 13.603L122.505 8.60845C121.556 7.58939 120.349 6.98937 118.865 6.98937ZM198.183 6.98937C196.779 6.98937 195.532 7.54887 194.662 8.46803L202.792 17.4804L194.662 26.5712C195.532 27.4904 196.779 28.0705 198.183 28.0705C199.607 28.0705 200.893 27.4509 201.803 26.4318L206.312 21.3959L210.842 26.4318C211.712 27.4509 212.998 28.0705 214.462 28.0705C215.827 28.0705 217.112 27.4904 218.022 26.5712L209.834 17.4804L218.022 8.46803C217.112 7.54887 215.827 6.98937 214.462 6.98937C212.998 6.98937 211.712 7.60937 210.842 8.60845L206.312 13.603L201.763 8.60845C200.873 7.58939 199.647 6.98937 198.183 6.98937Z" fill="#F6F6F6"/>
<path fill-rule="evenodd" clip-rule="evenodd" d="M45.7204 6.9502C44.6721 6.9502 43.762 7.8286 43.762 8.92759V28.0706C46.6103 28.0706 48.9637 25.7128 48.9637 22.7755H59.4479C62.3357 22.7755 64.669 20.4177 64.669 17.4804V12.2453C64.669 9.30796 62.3357 6.9502 59.4479 6.9502H45.7204ZM69.5743 6.9502C68.526 6.9502 67.6557 7.8286 67.6557 8.92759V28.0706C70.5238 28.0706 72.8973 25.7128 72.8973 22.7755V21.4362H78.8115L81.838 25.7927C82.827 27.1914 84.3103 28.0706 86.1301 28.0706C87.0004 28.0706 87.8511 27.8706 88.5433 27.451L84.3106 21.396C86.7238 20.8964 88.5433 18.7591 88.5433 16.1815V12.2453C88.5433 9.30796 86.2094 6.9502 83.3018 6.9502H69.5743ZM96.7124 6.9502C93.8245 6.9502 91.5301 9.30796 91.5301 12.2453V22.7755C91.5301 25.7128 93.8245 28.0706 96.7124 28.0706H107.176C110.064 28.0706 112.398 25.7128 112.398 22.7755V12.2453C112.398 9.30796 110.064 6.9502 107.176 6.9502H96.7124ZM143.689 6.9502C142.562 6.9502 141.692 7.8286 141.692 8.92759V28.0706C144.56 28.0706 146.934 25.7128 146.934 22.7755V12.6645C146.934 12.4047 147.092 12.205 147.388 12.205C147.527 12.205 147.686 12.3446 147.765 12.4445L153.58 25.3724C153.777 25.832 154.272 26.1717 154.766 26.1717C155.281 26.1717 155.735 25.8527 155.972 25.3931L161.768 12.4445C161.847 12.3446 161.986 12.205 162.184 12.205C162.402 12.205 162.619 12.4047 162.619 12.6645V22.7755C162.619 25.7128 164.953 28.0706 167.801 28.0706V8.92759C167.801 7.8286 166.931 6.9502 165.882 6.9502H162.619C160.482 6.9502 158.663 8.24814 157.832 10.1264V10.0469L154.766 16.8609L151.72 10.0469V10.1264C150.929 8.24814 149.05 6.9502 146.934 6.9502H143.689ZM176.029 6.9502C173.121 6.9502 170.788 9.30796 170.788 12.2453V22.7755C170.788 25.7128 173.121 28.0706 176.029 28.0706H186.434C189.341 28.0706 191.675 25.7128 191.675 22.7755V12.2453C191.675 9.30796 189.341 6.9502 186.434 6.9502H176.029ZM48.9637 12.2453H58.1221C58.1221 12.2453 59.4479 12.2442 59.4479 13.5432V16.8206C59.4479 16.8206 59.4474 18.1599 58.1221 18.1599H48.9637V12.2453ZM72.8973 12.2453H82.0159C82.0159 12.2453 83.3018 12.2442 83.3018 13.5432V15.5423C83.3018 15.5423 83.3016 16.8206 82.0159 16.8206H72.8973V12.2453ZM98.0381 12.2453H105.85C105.85 12.2453 107.176 12.2442 107.176 13.5432V21.4362C107.176 21.4362 107.176 22.7755 105.85 22.7755H98.0381C98.0381 22.7755 96.7124 22.775 96.7124 21.4362V13.5432C96.7124 13.5432 96.7128 12.2453 98.0381 12.2453ZM177.315 12.2453H185.148C185.148 12.2453 186.434 12.2442 186.434 13.5432V21.4362C186.434 21.4362 186.433 22.7755 185.148 22.7755H177.315C177.315 22.7755 176.029 22.775 176.029 21.4362V13.5432C176.029 13.5432 176.029 12.2453 177.315 12.2453Z" fill="#F6F6F6"/>
</svg>
